<?xml version="1.0" encoding="UTF-8"?>
<svg width="44px" height="44px" viewBox="0 0 44 44" version="1.1" xmlns="http://www.w3.org/2000/svg" xmlns:xlink="http://www.w3.org/1999/xlink">
    <title>8EC46A08-9ADE-4F36-80AA-E8CE7E77FA4B</title>
    <g id="Desktop" stroke="none" stroke-width="1" fill="none" fill-rule="evenodd">
        <g id="About-Us" transform="translate(-434.000000, -935.000000)">
            <g id="Exceptional-Boats" transform="translate(435.000000, 936.000000)">
                <polygon id="Fill-1" points="0 42 42 42 42 0 0 0"></polygon>
                <g id="Group-8" stroke="#23A8CD" stroke-linecap="round" stroke-linejoin="round" stroke-width="2.45">
                    <path d="M25.537575,26.296375 L33.479075,26.296375 C35.223825,26.296375 36.359575,24.518375 35.579075,23.009875 L24.302075,1.189125 C24.025575,0.653625 23.189075,0.844375 23.189075,1.442875 L23.189075,24.024875 C23.189075,25.279625 24.240825,26.296375 25.537575,26.296375 Z" id="Stroke-2"></path>
                    <path d="M18.81005,24.024175 L18.81005,6.529425 C18.81005,5.904675 17.91755,5.738425 17.6778,6.319425 L10.7058,23.180675 C10.0898,24.673425 11.22555,26.295675 12.8863,26.295675 L16.46155,26.295675 C17.7583,26.295675 18.81005,25.278925 18.81005,24.024175 Z" id="Stroke-4"></path>
                    <path d="M6.21495,40.410825 C6.8782,40.834325 7.66745,41.124825 8.76645,41.124825 C12.8072,41.124825 12.8072,37.194325 16.84795,37.194325 C20.89045,37.194325 20.89045,41.124825 24.9312,41.124825 C28.9807,41.124825 28.9807,37.194325 33.02845,37.194325 C35.1652,37.194325 36.17495,38.291575 37.2477,39.325825 C39.1902,37.644075 40.5727,35.370825 41.0907,32.796575 C41.32695,31.615325 40.3207,30.532075 39.07645,30.532075 L2.9232,30.532075 C1.67895,30.532075 0.6727,31.615325 0.9107,32.796575 C1.54945,35.976325 3.50945,38.699325 6.21495,40.410825 Z" id="Stroke-6"></path>
                </g>
            </g>
        </g>
    </g>
</svg>