<?xml version="1.0" encoding="UTF-8"?>
<svg width="83px" height="80px" viewBox="0 0 83 80" version="1.1" xmlns="http://www.w3.org/2000/svg" xmlns:xlink="http://www.w3.org/1999/xlink">
    <title>E1E3D3D6-2392-4440-A92A-6156083ED9A7</title>
    <g id="Desktop" stroke="none" stroke-width="1" fill="none" fill-rule="evenodd" stroke-linecap="round" stroke-linejoin="round">
        <g id="Check-Availability-Success-Page" transform="translate(-679.000000, -233.000000)" stroke="#23A8CD" stroke-width="4.30769231">
            <g id="Huge-Help" transform="translate(680.000000, 234.000000)">
                <g id="Group-10" transform="translate(0.732601, 0.732601)">
                    <path d="M78.1533333,34.6683223 C78.1533333,53.2705201 60.8317216,68.367956 39.3987546,68.367956 C36.0254212,68.367956 32.7295971,67.9972601 29.605641,67.2794579 C28.8238095,67.1008498 28.0150183,67.1513993 27.2736264,67.4580659 L9.31846154,74.8989451 C6.12710623,76.2199707 2.93238095,73.0252454 4.25340659,69.8372601 L8.87362637,58.6658315 C9.44652015,57.2841465 9.12974359,55.7339634 8.1625641,54.5949158 C3.42776557,49.0176264 0.644175824,42.1294212 0.644175824,34.6683223 C0.644175824,16.0324249 17.9994872,0.968688645 39.3987546,0.968688645 C60.8317216,0.968688645 78.1533333,16.0324249 78.1533333,34.6683223 Z" id="Stroke-2"></path>
                    <path d="M26.2134359,34.6683223 C26.2134359,35.9387985 25.1855971,36.9700073 23.9151209,36.9700073 C22.6446447,36.9700073 21.6134359,35.9387985 21.6134359,34.6683223 C21.6134359,33.3978462 22.6446447,32.3666374 23.9151209,32.3666374 C25.1855971,32.3666374 26.2134359,33.3978462 26.2134359,34.6683223 Z" id="Stroke-4"></path>
                    <path d="M41.6994286,34.6683223 C41.6994286,35.9387985 40.6682198,36.9700073 39.3977436,36.9700073 C38.1272674,36.9700073 37.0994286,35.9387985 37.0994286,34.6683223 C37.0994286,33.3978462 38.1272674,32.3666374 39.3977436,32.3666374 C40.6682198,32.3666374 41.6994286,33.3978462 41.6994286,34.6683223 Z" id="Stroke-6"></path>
                    <path d="M57.1833993,34.6683223 C57.1833993,35.9387985 56.1521905,36.9700073 54.8817143,36.9700073 C53.6112381,36.9700073 52.5833993,35.9387985 52.5833993,34.6683223 C52.5833993,33.3978462 53.6112381,32.3666374 54.8817143,32.3666374 C56.1521905,32.3666374 57.1833993,33.3978462 57.1833993,34.6683223 Z" id="Stroke-8"></path>
                </g>
            </g>
        </g>
    </g>
</svg>