<?xml version="1.0" encoding="UTF-8"?>
<svg width="32px" height="32px" viewBox="0 0 32 32" version="1.1" xmlns="http://www.w3.org/2000/svg" xmlns:xlink="http://www.w3.org/1999/xlink">
    <title>Menu</title>
    <g id="Desktop" stroke="none" stroke-width="1" fill="none" fill-rule="evenodd">
        <g id="Checkout---Discount-Code" transform="translate(-151.000000, -1756.000000)">
            <g id="Menu" transform="translate(151.000000, 1756.000000)">
                <polygon id="Fill-1" points="0 32 31.999 32 31.999 0.001 0 0.001"></polygon>
                <g id="Group-10" transform="translate(4.000000, 7.000000)" stroke="#23A8CD" stroke-linecap="round" stroke-linejoin="round" stroke-width="1.4">
                    <path d="M17.4785,17.05 L6.5215,17.05 C5.6505,17.05 4.8535,16.558 4.4645,15.779 L2.8005,12.45 L21.2005,12.45 L19.5355,15.779 C19.1455,16.558 18.3495,17.05 17.4785,17.05 Z" id="Stroke-2"></path>
                    <line x1="0.4999" y1="12.4499" x2="23.4999" y2="12.4499" id="Stroke-4"></line>
                    <path d="M2.8002,12.4499 C2.8002,7.3689 6.9192,3.2499 12.0002,3.2499 C17.0812,3.2499 21.2002,7.3689 21.2002,12.4499" id="Stroke-6"></path>
                    <path d="M10.7177,3.2541 C10.4427,2.9481 10.2757,2.5441 10.2757,2.1001 C10.2757,1.1481 11.0477,0.3751 11.9997,0.3751 C12.9527,0.3751 13.7247,1.1481 13.7247,2.1001 C13.7247,2.5431 13.5577,2.9471 13.2837,3.2531" id="Stroke-8"></path>
                </g>
            </g>
        </g>
    </g>
</svg>