<?xml version="1.0" encoding="UTF-8"?>
<svg width="32px" height="32px" viewBox="0 0 32 32" version="1.1" xmlns="http://www.w3.org/2000/svg" xmlns:xlink="http://www.w3.org/1999/xlink">
    <title>29F1E1FC-F3A3-4CC1-AB76-C272BF9243F7</title>
    <g id="Desktop" stroke="none" stroke-width="1" fill="none" fill-rule="evenodd">
        <g id="Contact-Us" transform="translate(-159.000000, -434.000000)">
            <g id="Email" transform="translate(159.000000, 434.000000)">
                <polygon id="Fill-1" points="0 32 31.999 32 31.999 0.001 0 0.001"></polygon>
                <g id="Group-6" transform="translate(4.000000, 7.695652)" stroke="#23A8CD" stroke-linecap="round" stroke-linejoin="round" stroke-width="1.4">
                    <path d="M22.35,16.3534478 L1.65,16.3534478 C1.015,16.3534478 0.5,15.8384478 0.5,15.2034478 L0.5,1.40344783 C0.5,0.768447826 1.015,0.253447826 1.65,0.253447826 L22.35,0.253447826 C22.985,0.253447826 23.5,0.768447826 23.5,1.40344783 L23.5,15.2034478 C23.5,15.8384478 22.985,16.3534478 22.35,16.3534478 Z" id="Stroke-2"></path>
                    <path d="M0.9028,0.535047826 L11.3408,7.84204783 C11.7358,8.11804783 12.2638,8.11804783 12.6598,7.84204783 L23.0978,0.535047826" id="Stroke-4"></path>
                </g>
            </g>
        </g>
    </g>
</svg>