<?xml version="1.0" encoding="UTF-8"?>
<svg width="32px" height="32px" viewBox="0 0 32 32" version="1.1" xmlns="http://www.w3.org/2000/svg" xmlns:xlink="http://www.w3.org/1999/xlink">
    <title>B331F8EB-A667-43FF-BBDF-2209CBB29C9F</title>
    <g id="Desktop" stroke="none" stroke-width="1" fill="none" fill-rule="evenodd">
        <g id="Bavaria-44" transform="translate(-135.000000, -1186.000000)">
            <g id="Sparkles" transform="translate(135.000000, 1186.000000)">
                <polygon id="Fill-1" points="0 32 31.999 32 31.999 0.001 0 0.001"></polygon>
                <g id="Group-6" transform="translate(5.000000, 5.000000)" stroke="#23A8CD" stroke-linecap="round" stroke-linejoin="round" stroke-width="1.4">
                    <path d="M21.5829,13.7903 C18.9369,15.3323 16.7479,17.9253 15.3539,21.1583 C15.1569,21.6153 14.5109,21.6153 14.3139,21.1583 C12.9189,17.9253 10.7309,15.3323 8.0839,13.7903 C7.7179,13.5773 7.7169,13.0363 8.0829,12.8213 C10.7299,11.2703 12.9189,8.6753 14.3139,5.4413 C14.5109,4.9843 15.1569,4.9843 15.3539,5.4413 C16.7489,8.6753 18.9369,11.2703 21.5839,12.8213 C21.9499,13.0363 21.9499,13.5773 21.5829,13.7903 Z" id="Stroke-2"></path>
                    <path d="M8.2314,5.7263 C6.8164,6.6323 5.6284,8.0273 4.8074,9.7413 C4.5964,10.1823 3.9864,10.1823 3.7754,9.7413 C2.9544,8.0273 1.7664,6.6323 0.3514,5.7263 C0.0034,5.5043 0.0024,5.0033 0.3504,4.7803 C1.7664,3.8703 2.9544,2.4733 3.7754,0.7583 C3.9864,0.3173 4.5964,0.3173 4.8074,0.7583 C5.6284,2.4733 6.8164,3.8703 8.2324,4.7803 C8.5794,5.0033 8.5794,5.5043 8.2314,5.7263 Z" id="Stroke-4"></path>
                </g>
            </g>
        </g>
    </g>
</svg>