<?xml version="1.0" encoding="UTF-8"?>
<svg width="32px" height="32px" viewBox="0 0 32 32" version="1.1" xmlns="http://www.w3.org/2000/svg" xmlns:xlink="http://www.w3.org/1999/xlink">
    <title>050CFA79-D5EC-4668-995A-741AB04E1892</title>
    <g id="Desktop" stroke="none" stroke-width="1" fill="none" fill-rule="evenodd">
        <g id="Homepage" transform="translate(-689.000000, -417.000000)">
            <g id="Calendar" transform="translate(689.000000, 417.000000)">
                <polygon id="Fill-1" points="0 32 32 32 32 0 0 0"></polygon>
                <g id="Group-10" transform="translate(6.000000, 4.000000)" stroke="#23A8CD" stroke-linecap="round" stroke-linejoin="round" stroke-width="1.4">
                    <path d="M18.1998,21.2002 L1.7998,21.2002 C1.2478,21.2002 0.7998,20.7522 0.7998,20.2002 L0.7998,3.8002 C0.7998,3.2472 1.2478,2.8002 1.7998,2.8002 L18.1998,2.8002 C18.7528,2.8002 19.1998,3.2472 19.1998,3.8002 L19.1998,20.2002 C19.1998,20.7522 18.7528,21.2002 18.1998,21.2002 Z" id="Stroke-2"></path>
                    <line x1="19.1998" y1="9.7002" x2="0.7998" y2="9.7002" id="Stroke-4"></line>
                    <line x1="6.5499" y1="6.2514" x2="6.5499" y2="0.5014" id="Stroke-6"></line>
                    <line x1="13.4498" y1="6.2514" x2="13.4498" y2="0.5014" id="Stroke-8"></line>
                </g>
            </g>
        </g>
    </g>
</svg>