<?xml version="1.0" encoding="UTF-8"?>
<svg width="32px" height="32px" viewBox="0 0 32 32" version="1.1" xmlns="http://www.w3.org/2000/svg" xmlns:xlink="http://www.w3.org/1999/xlink">
    <title>522D51D7-84E4-4210-8870-5156CECC4B39</title>
    <g id="Desktop" stroke="none" stroke-width="1" fill="none" fill-rule="evenodd">
        <g id="Homepage" transform="translate(-267.000000, -417.000000)">
            <g id="Services" transform="translate(267.000000, 417.000000)">
                <polygon id="Fill-1" points="0 32 31.999 32 31.999 0.001 0 0.001"></polygon>
                <g id="Group-8" transform="translate(5.000000, 5.000000)" stroke="#23A8CD" stroke-linecap="round" stroke-linejoin="round" stroke-width="1.4">
                    <path d="M15.0214,4.9885 C15.0214,7.2115 13.2194,9.0135 10.9964,9.0135 C8.7734,9.0135 6.9714,7.2115 6.9714,4.9885 C6.9714,2.7655 8.7734,0.9635 10.9964,0.9635 C13.2194,0.9635 15.0214,2.7655 15.0214,4.9885 Z" id="Stroke-2"></path>
                    <path d="M2.0488,13.5261 C3.9738,12.4151 6.4348,13.0741 7.5468,14.9991 C8.6578,16.9231 7.9978,19.3851 6.0728,20.4961 C4.1488,21.6081 1.6868,20.9481 0.5758,19.0231 C-0.5352,17.0981 0.1238,14.6371 2.0488,13.5261 Z" id="Stroke-4"></path>
                    <path d="M15.9286,20.4914 C14.0036,19.3804 13.3446,16.9184 14.4556,14.9934 C15.5666,13.0694 18.0286,12.4094 19.9526,13.5204 C21.8776,14.6324 22.5376,17.0934 21.4266,19.0184 C20.3146,20.9434 17.8536,21.6024 15.9286,20.4914 Z" id="Stroke-6"></path>
                </g>
            </g>
        </g>
    </g>
</svg>