<?xml version="1.0" encoding="UTF-8"?>
<svg width="32px" height="32px" viewBox="0 0 32 32" version="1.1" xmlns="http://www.w3.org/2000/svg" xmlns:xlink="http://www.w3.org/1999/xlink">
    <title>DA690FB9-379E-4287-AB72-B731313017E0</title>
    <g id="Desktop" stroke="none" stroke-width="1" fill="none" fill-rule="evenodd">
        <g id="Homepage" transform="translate(-478.000000, -417.000000)">
            <g id="People" transform="translate(478.000000, 417.000000)">
                <polygon id="Fill-1" points="0 32 31.999 32 31.999 0.001 0 0.001"></polygon>
                <g id="Group-10" transform="translate(6.000000, 5.000000)" stroke="#23A8CD" stroke-linecap="round" stroke-linejoin="round" stroke-width="1.4">
                    <path d="M13.4243,13.9573 L17.3853,13.9573 C19.1783,13.9573 20.3013,11.9833 19.3573,10.4583 C18.1843,8.5653 16.0883,7.3033 13.6963,7.3033 C13.4273,7.3033 13.1623,7.3193 12.9023,7.3503" id="Stroke-2"></path>
                    <path d="M10.3696,3.9768 C10.3696,2.1398 11.8596,0.6498 13.6966,0.6498 C15.5336,0.6498 17.0226,2.1398 17.0226,3.9768 C17.0226,5.8138 15.5336,7.3038 13.6966,7.3038 C13.4126,7.3038 13.1386,7.2678 12.8756,7.2018" id="Stroke-4"></path>
                    <path d="M14.6777,21.3498 C16.2387,21.3498 17.3987,19.8098 16.8697,18.3418 C15.6367,14.9228 12.3647,12.4788 8.5217,12.4788 C4.6777,12.4788 1.4057,14.9228 0.1737,18.3418 C-0.3563,19.8098 0.8037,21.3498 2.3647,21.3498 L14.6777,21.3498 Z" id="Stroke-6"></path>
                    <path d="M12.957,8.0427 C12.957,10.4927 10.971,12.4787 8.521,12.4787 C6.072,12.4787 4.086,10.4927 4.086,8.0427 C4.086,5.5927 6.072,3.6067 8.521,3.6067 C10.971,3.6067 12.957,5.5927 12.957,8.0427 Z" id="Stroke-8"></path>
                </g>
            </g>
        </g>
    </g>
</svg>