<svg width="60" height="40" viewBox="0 0 60 40" fill="none" xmlns="http://www.w3.org/2000/svg">
<g clip-path="url(#clip0_101_3426)">
<path d="M0 0H60V40H0V0Z" fill="white"/>
<path d="M30 0H60V40H30V0Z" fill="#CF142B"/>
<path d="M6.01852 2.31482H8.98149V5.12934C9.09393 5.12136 9.21001 5.13985 9.3207 5.18337C9.43139 5.22689 9.53371 5.29427 9.61973 5.38028C9.70574 5.46629 9.77312 5.56862 9.81664 5.67931C9.86016 5.79 9.87865 5.90608 9.87066 6.01852H12.6852V8.98149H9.87066C9.87865 9.09393 9.86016 9.21001 9.81664 9.3207C9.77312 9.43139 9.70574 9.53371 9.61973 9.61973C9.53371 9.70574 9.43139 9.77312 9.3207 9.81664C9.21001 9.86016 9.09393 9.87865 8.98149 9.87066V12.6852H6.01852V9.87066C5.90608 9.87865 5.79 9.86016 5.67931 9.81664C5.56862 9.77312 5.46629 9.70574 5.38028 9.61973C5.29427 9.53371 5.22689 9.43139 5.18337 9.3207C5.13985 9.21001 5.12136 9.09393 5.12934 8.98149H2.31482V6.01852H5.12934C5.12136 5.90608 5.13985 5.79 5.18337 5.67931C5.22689 5.56862 5.29427 5.46629 5.38028 5.38028C5.46629 5.29427 5.56862 5.22689 5.67931 5.18337C5.79 5.13985 5.90608 5.12136 6.01852 5.12934V2.31482Z" stroke="#CF142B" stroke-width="0.37037"/>
<path d="M8.96415 5.13082C9.07896 5.11984 9.19821 5.13672 9.31215 5.18008C9.42609 5.22344 9.53149 5.29205 9.61975 5.38031C9.70801 5.46857 9.77663 5.57398 9.81999 5.68792C9.86335 5.80186 9.88023 5.9211 9.86925 6.03591V8.96415C9.88023 9.07896 9.86335 9.19821 9.81999 9.31215C9.77663 9.42609 9.70801 9.53149 9.61975 9.61975C9.53149 9.70801 9.42609 9.77663 9.31215 9.81999C9.19821 9.86335 9.07896 9.88023 8.96415 9.86925H6.03591C5.9211 9.88023 5.80186 9.86335 5.68792 9.81999C5.57398 9.77663 5.46857 9.70801 5.38031 9.61975C5.29205 9.53149 5.22344 9.42609 5.18008 9.31215C5.13672 9.19821 5.11984 9.07896 5.13082 8.96415V6.03591C5.11984 5.9211 5.13672 5.80186 5.18008 5.68792C5.22344 5.57398 5.29205 5.46857 5.38031 5.38031C5.46857 5.29205 5.57398 5.22344 5.68792 5.18008C5.80186 5.13672 5.9211 5.11984 6.03591 5.13082H8.96415Z" fill="white"/>
<path d="M6.03586 2.33215H8.9641V12.6678H6.03586V2.33215ZM2.33215 6.03586H12.6678V8.9641H2.33215V6.03586Z" fill="white" stroke="black" stroke-width="0.0347222"/>
<path d="M6.2037 2.5H8.7963V12.5H6.2037V2.5ZM2.5 6.2037H12.5V8.7963H2.5V6.2037Z" fill="white" stroke="black" stroke-width="0.0694444"/>
<path d="M7.5 9.81481C8.77843 9.81481 9.81481 8.77843 9.81481 7.5C9.81481 6.22156 8.77843 5.18518 7.5 5.18518C6.22156 5.18518 5.18518 6.22156 5.18518 7.5C5.18518 8.77843 6.22156 9.81481 7.5 9.81481Z" fill="white" stroke="black" stroke-width="0.0694444"/>
<path d="M7.50001 9.21291C8.44605 9.21291 9.21297 8.44599 9.21297 7.49995C9.21297 6.55391 8.44605 5.78699 7.50001 5.78699C6.55397 5.78699 5.78705 6.55391 5.78705 7.49995C5.78705 8.44599 6.55397 9.21291 7.50001 9.21291Z" fill="white" stroke="black" stroke-width="0.0694444"/>
<path d="M9.73088 5.64451C9.65058 5.706 9.49795 5.86297 9.40536 5.97799L9.31928 5.92446C9.43719 5.82246 9.60067 5.67127 9.69109 5.56349L9.73088 5.64451ZM9.65782 5.51068C9.51242 5.55336 9.23464 5.6351 9.11601 5.71034L9.08997 5.67272C9.13988 5.60111 9.1963 5.30669 9.19413 5.22278L9.28455 5.24303C9.2549 5.31537 9.22596 5.47017 9.218 5.57072C9.31132 5.55409 9.53267 5.48175 9.59561 5.43618L9.65782 5.51068Z" fill="white" stroke="black" stroke-width="0.0347222" stroke-linejoin="round"/>
<path d="M9.84432 5.84205H9.72959C9.73985 5.78147 9.72339 5.7056 9.68288 5.62672C9.64237 5.54784 9.58018 5.47058 9.50639 5.40745C9.4326 5.34433 9.35154 5.29904 9.27633 5.27893C9.20112 5.25882 9.13618 5.26506 9.09202 5.29664C9.04786 5.32822 9.02708 5.3833 9.03304 5.45294C9.039 5.52258 9.07136 5.6027 9.12486 5.68034C9.17836 5.75797 9.24988 5.82855 9.32783 5.88066C9.40577 5.93276 9.48558 5.96333 9.55432 5.96742L9.63541 5.8707L9.73531 5.9706L9.62354 6.08229C9.51931 6.06679 9.41674 6.02935 9.32276 5.97249C9.22879 5.91563 9.14559 5.84068 9.07879 5.7527C9.01199 5.66473 8.96315 5.56577 8.93557 5.46251C8.90799 5.35926 8.9023 5.25412 8.9189 5.15419C9.01747 5.13782 9.12113 5.14312 9.22306 5.16976C9.325 5.1964 9.42289 5.24376 9.51031 5.30874C9.59772 5.37371 9.67268 5.45483 9.73025 5.54675C9.78782 5.63867 9.8267 5.73931 9.84432 5.84205Z" fill="white" stroke="black" stroke-width="0.0347222" stroke-linejoin="round"/>
<path d="M9.35549 9.731C9.294 9.65071 9.13703 9.49807 9.02201 9.40548L9.07554 9.3194C9.17754 9.43731 9.32873 9.60079 9.43651 9.69122L9.35549 9.731ZM9.48932 9.65794C9.44664 9.51254 9.3649 9.23476 9.28966 9.11613L9.32728 9.09009C9.39889 9.14 9.69331 9.19642 9.77722 9.19425L9.75697 9.28468C9.68463 9.25502 9.52983 9.22608 9.42928 9.21813C9.44591 9.31144 9.51825 9.5328 9.56382 9.59573L9.48932 9.65794Z" fill="white" stroke="black" stroke-width="0.0347222" stroke-linejoin="round"/>
<path d="M9.15795 9.84438V9.72965C9.21853 9.73991 9.2944 9.72345 9.37328 9.68294C9.45216 9.64243 9.52942 9.58024 9.59255 9.50645C9.65567 9.43266 9.70096 9.3516 9.72107 9.27639C9.74118 9.20118 9.73494 9.13624 9.70336 9.09208C9.67178 9.04793 9.6167 9.02714 9.54706 9.0331C9.47742 9.03906 9.3973 9.07142 9.31966 9.12492C9.24203 9.17842 9.17145 9.24994 9.11934 9.32789C9.06724 9.40584 9.03667 9.48564 9.03258 9.55438L9.1293 9.63547L9.0294 9.73537L8.91771 9.62361C8.93321 9.51937 8.97065 9.4168 9.02751 9.32283C9.08437 9.22885 9.15932 9.14565 9.2473 9.07885C9.33527 9.01205 9.43423 8.96321 9.53749 8.93563C9.64074 8.90805 9.74588 8.90236 9.84581 8.91896C9.86218 9.01753 9.85688 9.12119 9.83024 9.22313C9.8036 9.32506 9.75624 9.42295 9.69126 9.51037C9.62629 9.59779 9.54517 9.67274 9.45325 9.73031C9.36133 9.78788 9.26069 9.82676 9.15795 9.84438Z" fill="white" stroke="black" stroke-width="0.0347222" stroke-linejoin="round"/>
<path d="M5.26912 9.35549C5.34942 9.294 5.50205 9.13703 5.59464 9.02201L5.68072 9.07554C5.56281 9.17754 5.39933 9.32873 5.30891 9.43651L5.26912 9.35549ZM5.34218 9.48932C5.48758 9.44664 5.76536 9.3649 5.88399 9.28966L5.91003 9.32728C5.86012 9.39889 5.8037 9.69331 5.80587 9.77722L5.71545 9.75697C5.7451 9.68463 5.77404 9.52983 5.782 9.42928C5.68868 9.44591 5.46733 9.51825 5.40439 9.56382L5.34218 9.48932Z" fill="white" stroke="black" stroke-width="0.0347222" stroke-linejoin="round"/>
<path d="M5.15568 9.15795H5.27041C5.26015 9.21853 5.27661 9.2944 5.31712 9.37328C5.35763 9.45216 5.41982 9.52942 5.49361 9.59255C5.5674 9.65567 5.64846 9.70096 5.72367 9.72107C5.79888 9.74118 5.86382 9.73494 5.90798 9.70336C5.95214 9.67178 5.97292 9.6167 5.96696 9.54706C5.961 9.47742 5.92864 9.3973 5.87514 9.31966C5.82164 9.24203 5.75012 9.17145 5.67217 9.11934C5.59423 9.06724 5.51442 9.03667 5.44568 9.03258L5.36459 9.1293L5.26469 9.0294L5.37646 8.91771C5.48069 8.93321 5.58326 8.97065 5.67724 9.02751C5.77121 9.08437 5.85441 9.15932 5.92121 9.2473C5.98801 9.33527 6.03685 9.43423 6.06443 9.53749C6.09201 9.64074 6.0977 9.74588 6.0811 9.84581C5.98253 9.86218 5.87887 9.85688 5.77694 9.83024C5.675 9.8036 5.57711 9.75624 5.48969 9.69126C5.40228 9.62629 5.32732 9.54517 5.26975 9.45325C5.21218 9.36133 5.1733 9.26069 5.15568 9.15795Z" fill="white" stroke="black" stroke-width="0.0347222" stroke-linejoin="round"/>
<path d="M5.64457 5.269C5.70606 5.34929 5.86303 5.50193 5.97805 5.59452L5.92452 5.6806C5.82252 5.56269 5.67133 5.39921 5.56355 5.30878L5.64457 5.269ZM5.51074 5.34206C5.55342 5.48746 5.63517 5.76524 5.7104 5.88387L5.67278 5.90991C5.60117 5.86 5.30675 5.80358 5.22284 5.80575L5.24309 5.71532C5.31543 5.74498 5.47024 5.77392 5.57078 5.78187C5.55415 5.68856 5.48181 5.4672 5.43624 5.40427L5.51074 5.34206Z" fill="white" stroke="black" stroke-width="0.0347222" stroke-linejoin="round"/>
<path d="M5.84212 5.15562V5.27035C5.78154 5.26009 5.70566 5.27655 5.62678 5.31706C5.5479 5.35757 5.47064 5.41976 5.40751 5.49355C5.34439 5.56734 5.29911 5.6484 5.27899 5.72361C5.25888 5.79882 5.26512 5.86376 5.2967 5.90792C5.32828 5.95207 5.38336 5.97286 5.453 5.9669C5.52264 5.96094 5.60277 5.92858 5.6804 5.87508C5.75803 5.82158 5.82861 5.75006 5.88072 5.67211C5.93282 5.59416 5.96339 5.51436 5.96748 5.44562L5.87076 5.36453L5.97066 5.26463L6.08235 5.37639C6.06685 5.48063 6.02941 5.5832 5.97255 5.67717C5.9157 5.77115 5.84075 5.85435 5.75277 5.92115C5.66479 5.98795 5.56583 6.03679 5.46257 6.06437C5.35932 6.09195 5.25418 6.09764 5.15425 6.08104C5.13788 5.98247 5.14318 5.87881 5.16982 5.77687C5.19646 5.67494 5.24382 5.57705 5.3088 5.48963C5.37377 5.40221 5.45489 5.32726 5.54681 5.26969C5.63873 5.21212 5.73937 5.17324 5.84212 5.15562Z" fill="white" stroke="black" stroke-width="0.0347222" stroke-linejoin="round"/>
<path d="M5.66191 8.7948C5.60983 8.70366 5.54111 8.58719 5.50349 8.55681C5.52664 8.5409 5.55775 8.51775 5.57366 8.51341C5.57294 8.57128 5.66047 8.69136 5.66047 8.69136L5.78923 8.60673C5.75306 8.55103 5.72123 8.50835 5.69519 8.49171C5.72702 8.46856 5.76102 8.44903 5.77042 8.44686C5.77115 8.47507 5.78778 8.52209 5.83697 8.57996C5.83697 8.57996 5.95705 8.5163 5.99612 8.46711L6.04675 8.54958C5.99033 8.56043 5.73715 8.71813 5.66191 8.7948ZM5.48324 7.69744C5.34797 7.72203 5.27925 7.83705 5.3024 7.96653C5.32554 8.09747 5.44273 8.18717 5.57149 8.16546C5.70025 8.14304 5.77332 8.02441 5.74872 7.88696C5.72413 7.74952 5.61851 7.67284 5.48324 7.69744ZM5.50277 7.77556C5.61128 7.75603 5.70242 7.80884 5.71762 7.89275C5.73281 7.97666 5.66553 8.05985 5.5563 8.07938C5.44707 8.09891 5.36027 8.02947 5.34797 7.9593C5.33495 7.88769 5.39354 7.79509 5.50277 7.77556ZM5.76753 6.97984C5.72268 7.05074 5.62358 7.11584 5.53605 7.17588C5.52375 7.11367 5.47745 7.07388 5.42392 7.07027C5.36678 7.06737 5.30818 7.11295 5.29806 7.14333C5.28359 7.18528 5.2655 7.36541 5.2655 7.36541C5.37835 7.35673 5.62502 7.37626 5.70966 7.40736L5.71979 7.31188C5.66409 7.32634 5.53822 7.3003 5.53822 7.3003L5.54111 7.25835L5.67132 7.15563C5.68796 7.14261 5.78561 7.05146 5.78851 6.98636C5.78923 6.9661 5.77187 6.97116 5.76753 6.97984ZM5.50639 7.29886C5.45503 7.3003 5.34797 7.29451 5.31831 7.28149C5.32988 7.17805 5.36171 7.14116 5.41669 7.14622C5.46733 7.15129 5.52086 7.18022 5.50639 7.29886ZM5.99973 6.01703C5.90135 6.02498 5.77838 6.11758 5.78127 6.19715C5.782 6.2391 5.79646 6.29697 5.85216 6.33893C5.90714 6.38089 5.96429 6.39318 6.00986 6.3845C6.05399 6.37655 6.12705 6.31506 6.12632 6.28106C6.12632 6.24778 6.0482 6.15519 5.99901 6.15519L6.08075 6.06766C6.10173 6.1183 6.18564 6.19208 6.21675 6.20149C6.1813 6.28612 6.13718 6.37438 6.04458 6.41706C5.95199 6.46046 5.85578 6.45829 5.76825 6.37582C5.68579 6.2977 5.71762 6.14723 5.7697 6.08864C5.82685 6.02426 5.93318 5.99677 5.93535 5.94686L5.99973 6.01703ZM6.46125 5.53019L6.47861 5.85861C6.47861 5.85861 6.48512 5.97507 6.45836 6.04741L6.56035 5.97579C6.52057 5.94397 6.52852 5.84631 6.52852 5.84631L6.69345 5.75806C6.69345 5.75806 6.77158 5.80797 6.76362 5.86873L6.90396 5.81159C6.82222 5.78048 6.72094 5.70887 6.72094 5.70887L6.46125 5.53019ZM6.51406 5.63219L6.66452 5.73201L6.51767 5.81086L6.51406 5.63219ZM7.25046 5.28931C7.23165 5.3696 7.2519 5.52802 7.28156 5.65968C7.38356 5.65027 7.46168 5.64015 7.49641 5.59674L7.50581 5.70525C7.40526 5.70525 7.29458 5.71682 7.19331 5.73274C7.19476 5.58445 7.17957 5.38986 7.13761 5.30594L7.25046 5.28931ZM8.01652 5.33777C7.9695 5.40577 7.93043 5.56057 7.91018 5.69368C8.00856 5.72261 8.08524 5.74142 8.1337 5.71321L8.1026 5.8181C8.00928 5.78193 7.9015 5.75155 7.80167 5.72912C7.85665 5.5924 7.9138 5.40505 7.90584 5.31245L8.01652 5.33777ZM8.79125 5.68861L8.5048 5.85137C8.5048 5.85137 8.40352 5.90997 8.32685 5.91865L8.43608 5.97652C8.44693 5.92733 8.53807 5.89044 8.53807 5.89044L8.69143 5.99822C8.69143 5.99822 8.6813 6.09153 8.62343 6.11107L8.737 6.21089C8.72904 6.12409 8.74713 6.00039 8.74713 6.00039L8.79125 5.68861ZM8.72326 5.7812L8.70083 5.96133L8.56411 5.86512L8.72326 5.7812ZM8.94316 6.45539L8.89831 6.37076C8.9721 6.36497 9.19418 6.23476 9.29617 6.16821L9.31209 6.19715L9.2166 6.63335C9.30196 6.59935 9.43723 6.52846 9.47412 6.48939L9.52476 6.5856C9.43 6.57186 9.25422 6.65866 9.12112 6.73968L9.1081 6.71653L9.18984 6.29191C9.18984 6.29191 8.96921 6.39174 8.94316 6.45539ZM9.61591 7.08618C9.60723 7.0218 9.60578 6.97767 9.57468 6.96321L9.57106 6.93644L9.64991 6.92342C9.68246 7.00806 9.71935 7.24388 9.71429 7.30464L9.63327 7.31766L9.62965 7.29524C9.65642 7.26486 9.62965 7.15346 9.62965 7.15346C9.50957 7.16575 9.30051 7.19975 9.27086 7.24098L9.25205 7.12958C9.29473 7.14405 9.50523 7.12163 9.61591 7.08618ZM9.22745 8.04394C9.2723 7.97304 9.37285 7.90866 9.46038 7.84935C9.47268 7.91156 9.51825 7.95207 9.5725 7.95496C9.62965 7.95858 9.68825 7.91445 9.69837 7.88335C9.71356 7.84139 9.73237 7.66199 9.73237 7.66199C9.61952 7.66923 9.37358 7.64825 9.28894 7.61642L9.27809 7.71191C9.33379 7.69816 9.45966 7.7242 9.45966 7.7242L9.45676 7.76616L9.32583 7.86816C9.30847 7.88118 9.21009 7.9716 9.20647 8.0367C9.20575 8.05696 9.22311 8.05117 9.22745 8.04394ZM9.49149 7.72637C9.54285 7.72565 9.64991 7.73216 9.67956 7.74518C9.66727 7.84862 9.63472 7.88552 9.57974 7.87973C9.5291 7.87394 9.4763 7.84501 9.49149 7.72637ZM9.08205 8.33112L9.01478 8.44686C9.06686 8.4389 9.1392 8.48013 9.19779 8.51847C9.21733 8.57056 9.294 8.70366 9.28822 8.83387L9.37502 8.68485C9.33668 8.66749 9.29183 8.64868 9.2629 8.50907C9.37719 8.46639 9.46255 8.45265 9.49872 8.4729L9.5754 8.34269C9.48642 8.39622 9.27737 8.4512 9.24264 8.43962C9.20647 8.41865 9.10375 8.38682 9.08205 8.33112Z" fill="black"/>
<path d="M8.56698 9.29828C8.61692 9.29828 8.65741 9.25779 8.65741 9.20785C8.65741 9.15792 8.61692 9.11743 8.56698 9.11743C8.51705 9.11743 8.47656 9.15792 8.47656 9.20785C8.47656 9.25779 8.51705 9.29828 8.56698 9.29828Z" fill="black"/>
<path d="M6.43301 9.29828C6.48295 9.29828 6.52344 9.25779 6.52344 9.20785C6.52344 9.15792 6.48295 9.11743 6.43301 9.11743C6.38307 9.11743 6.34259 9.15792 6.34259 9.20785C6.34259 9.25779 6.38307 9.29828 6.43301 9.29828Z" fill="black"/>
<path d="M7.64106 9.70772C7.63165 9.71423 7.60634 9.70121 7.60055 9.68095C7.60055 9.68746 7.5991 9.70772 7.5868 9.71929C7.55715 9.7475 7.52532 9.73376 7.5 9.73376C7.47468 9.73376 7.44285 9.7475 7.41319 9.71929C7.4009 9.70772 7.39945 9.68746 7.39945 9.68095C7.39366 9.70121 7.36834 9.71423 7.35894 9.70772C7.35026 9.70121 7.3546 9.673 7.37196 9.66142C7.36617 9.66287 7.34592 9.66793 7.33145 9.65998C7.29528 9.64044 7.2989 9.60572 7.29094 9.58185C7.28298 9.55798 7.25984 9.53194 7.27792 9.49504C7.28515 9.47985 7.30396 9.4719 7.30975 9.46973C7.28877 9.47045 7.26924 9.4502 7.27213 9.44007C7.27575 9.42922 7.30396 9.42488 7.3206 9.4379C7.31626 9.43283 7.30613 9.41547 7.30903 9.39884C7.31626 9.35833 7.35026 9.35109 7.37051 9.3359C7.39149 9.32071 7.40885 9.29105 7.44936 9.29684C7.466 9.29901 7.47902 9.3142 7.48336 9.31926C7.47613 9.29973 7.48915 9.27441 7.5 9.27441C7.51085 9.27441 7.52387 9.29973 7.51664 9.31926C7.52098 9.3142 7.534 9.29901 7.55063 9.29684C7.59114 9.29105 7.60851 9.32071 7.62948 9.3359C7.64974 9.35109 7.68374 9.35833 7.69097 9.39884C7.69386 9.41547 7.68374 9.43283 7.6794 9.4379C7.69603 9.42488 7.72425 9.42922 7.72786 9.44007C7.73076 9.4502 7.71123 9.47045 7.69025 9.46973C7.69603 9.4719 7.71484 9.47985 7.72208 9.49504C7.74016 9.53194 7.71701 9.55798 7.70906 9.58185C7.7011 9.60572 7.70471 9.64044 7.66855 9.65998C7.65408 9.66793 7.63382 9.66287 7.62804 9.66142C7.6454 9.673 7.64974 9.70121 7.64106 9.70772ZM7.43272 9.60645C7.4443 9.61513 7.41319 9.64117 7.42549 9.67372C7.43923 9.71206 7.47757 9.70048 7.5 9.70048C7.52242 9.70048 7.56076 9.71206 7.57451 9.67372C7.5868 9.64117 7.5557 9.61513 7.56727 9.60645C7.57885 9.59776 7.59476 9.63538 7.62876 9.63466C7.66999 9.63249 7.67072 9.59342 7.67723 9.57172C7.68446 9.55002 7.70761 9.51747 7.67506 9.49215C7.64829 9.47045 7.61285 9.49215 7.60851 9.47841C7.60416 9.46466 7.64467 9.46177 7.6548 9.42849C7.66565 9.38871 7.62804 9.37641 7.60995 9.36267C7.59114 9.34965 7.56727 9.31782 7.53327 9.34024C7.50506 9.35977 7.51447 9.39956 7.5 9.39956C7.48553 9.39956 7.49493 9.35977 7.46672 9.34024C7.43272 9.31782 7.40885 9.34965 7.39004 9.36267C7.37196 9.37641 7.33434 9.38871 7.3452 9.42849C7.35532 9.46177 7.39583 9.46466 7.39149 9.47841C7.38715 9.49215 7.35171 9.47045 7.32494 9.49215C7.29239 9.51747 7.31554 9.55002 7.32277 9.57172C7.32928 9.59342 7.33 9.63249 7.37124 9.63466C7.40524 9.63538 7.42115 9.59776 7.43272 9.60645Z" fill="black"/>
<path d="M7.50002 9.65778C7.49351 9.65778 7.48555 9.64259 7.48989 9.63029C7.48772 9.63391 7.47977 9.64259 7.46964 9.64404C7.44504 9.64766 7.43492 9.62957 7.42262 9.62089C7.41032 9.61149 7.39007 9.60715 7.38573 9.58327C7.38356 9.57315 7.39007 9.5623 7.39224 9.5594C7.38211 9.56736 7.36547 9.56447 7.3633 9.55796C7.36113 9.55217 7.37343 9.53987 7.38573 9.53987C7.38211 9.53915 7.37126 9.53408 7.36692 9.5254C7.35607 9.50298 7.36981 9.48779 7.37488 9.47332C7.37922 9.45885 7.37705 9.43788 7.39875 9.4263C7.40743 9.42124 7.41973 9.42413 7.42334 9.42558C7.41249 9.41834 7.41032 9.40171 7.41539 9.39737C7.42117 9.39375 7.43636 9.40171 7.43998 9.41328C7.43998 9.40966 7.4407 9.39737 7.44794 9.39086C7.46602 9.37349 7.48483 9.38218 7.50002 9.38218C7.51521 9.38218 7.53402 9.37349 7.5521 9.39086C7.55934 9.39737 7.56006 9.40966 7.56006 9.41328C7.56368 9.40171 7.57887 9.39375 7.58466 9.39737C7.58972 9.40171 7.58755 9.41834 7.5767 9.42558C7.58032 9.42413 7.59261 9.42124 7.60129 9.4263C7.623 9.43788 7.62083 9.45885 7.62517 9.47332C7.63023 9.48779 7.64397 9.50298 7.63312 9.5254C7.62878 9.53408 7.61793 9.53915 7.61431 9.53987C7.62661 9.53987 7.63891 9.55217 7.63674 9.55796C7.63457 9.56447 7.61793 9.56736 7.6078 9.5594C7.60997 9.5623 7.61649 9.57315 7.61431 9.58327C7.60997 9.60715 7.58972 9.61149 7.57742 9.62089C7.56513 9.62957 7.555 9.64766 7.5304 9.64404C7.52028 9.64259 7.51232 9.63391 7.51015 9.63029C7.51449 9.64259 7.50653 9.65778 7.50002 9.65778ZM7.50002 9.57532C7.50798 9.57532 7.50291 9.59702 7.51811 9.60715C7.53619 9.61944 7.54921 9.60281 7.55934 9.59557C7.56947 9.58834 7.58972 9.5811 7.58321 9.56013C7.57815 9.54204 7.55644 9.5406 7.55861 9.53264C7.56078 9.5254 7.57959 9.53698 7.59478 9.5254C7.61214 9.51166 7.59985 9.4943 7.59623 9.48272C7.59189 9.47115 7.59189 9.44945 7.56947 9.44873C7.55066 9.448 7.5427 9.46826 7.53619 9.46392C7.52968 9.45958 7.54704 9.44511 7.54053 9.42775C7.53257 9.40677 7.51232 9.41328 7.50002 9.41328C7.48772 9.41328 7.46747 9.40677 7.45951 9.42775C7.453 9.44511 7.47036 9.45958 7.46385 9.46392C7.45734 9.46826 7.44938 9.448 7.43058 9.44873C7.40815 9.44945 7.40815 9.47115 7.40381 9.48272C7.40019 9.4943 7.3879 9.51166 7.40526 9.5254C7.42045 9.53698 7.43926 9.5254 7.44143 9.53264C7.4436 9.5406 7.4219 9.54204 7.41683 9.56013C7.41032 9.5811 7.43058 9.58834 7.4407 9.59557C7.45083 9.60281 7.46385 9.61944 7.48194 9.60715C7.49713 9.59702 7.49206 9.57532 7.50002 9.57532Z" fill="black"/>
<path d="M7.49999 9.54857C7.51917 9.54857 7.53472 9.53302 7.53472 9.51385C7.53472 9.49467 7.51917 9.47913 7.49999 9.47913C7.48082 9.47913 7.46527 9.49467 7.46527 9.51385C7.46527 9.53302 7.48082 9.54857 7.49999 9.54857Z" fill="black"/>
<path d="M6.32086 8.74278C7.10661 8.71074 7.89333 8.71074 8.67908 8.74278" stroke="black" stroke-width="0.0347222" stroke-linecap="round" stroke-linejoin="round"/>
<path d="M7.41174 6.65076C7.46527 6.71007 7.47106 6.72526 7.47106 6.72526M7.57016 7.66783C7.56655 7.72932 7.56944 7.79297 7.57957 7.82553M7.42187 7.67796C7.44502 7.70327 7.47612 7.7908 7.47178 7.82336" stroke="black" stroke-width="0.0173611" stroke-linecap="round" stroke-linejoin="round"/>
<path d="M7.91012 8.73337C7.88191 8.74205 7.83272 8.77026 7.83344 8.79558C7.83417 8.82018 7.89204 8.82379 7.9094 8.82886C7.87829 8.84188 7.77919 8.86069 7.73506 8.83826C7.70323 8.85707 7.47609 8.80499 7.4298 8.80354C7.40086 8.80282 7.35963 8.77822 7.36469 8.72252C7.36542 8.71022 7.37337 8.68201 7.40086 8.67261C7.38495 8.64512 7.45511 8.59882 7.52456 8.55687C7.42039 8.57061 7.28946 8.5301 7.25619 8.49032C7.17661 8.46283 7.14189 8.48959 7.10862 8.55904C7.11151 8.67839 7.04496 8.73482 6.96539 8.72541C6.91113 8.7189 6.89956 8.74422 6.88509 8.75001L7.04713 8.79992C7.15274 8.90192 7.09053 8.97643 7.06738 8.99523C7.04496 9.01332 6.98492 9.00464 6.94947 9.00464C6.91403 9.00464 6.9133 9.01549 6.89811 9.02345C6.87279 9.03647 6.84748 9.0437 6.83663 9.03213C6.84314 9.01549 6.85326 8.95039 6.89667 8.94026C6.92271 8.93809 6.96973 8.92579 6.97117 8.9012C6.9719 8.87732 6.88437 8.88094 6.81565 8.8549C6.75778 8.8332 6.73825 8.80354 6.75922 8.71312C6.77586 8.61257 6.89377 8.60099 6.95092 8.60027C6.94296 8.55759 6.94803 8.48381 7.00156 8.43534C7.07968 8.36372 7.20048 8.38977 7.3032 8.39628C7.3618 8.36372 7.47031 8.31526 7.57664 8.31092C7.67213 8.3073 8.09531 8.19807 8.28772 8.21905C8.24432 8.15467 8.25445 8.00276 8.3333 7.95791C8.43385 7.90148 8.54235 8.05412 8.5684 8.02735C8.59444 7.99986 8.53584 7.96008 8.46206 7.8834C8.44397 7.8494 8.44759 7.85374 8.44687 7.84289C8.44542 7.8183 8.45121 7.78864 8.46061 7.78213C8.46929 7.77634 8.52933 7.79876 8.5438 7.82047C8.56333 7.85012 8.58793 7.86387 8.60746 7.84795C8.63278 7.82842 8.60022 7.83566 8.58576 7.79298C8.57852 7.772 8.56189 7.75536 8.56261 7.73438C8.57708 7.71775 8.6335 7.67145 8.67763 7.65698C8.69571 7.67434 8.70728 7.69749 8.72175 7.72064C8.7572 7.77417 8.78975 7.7597 8.81362 7.79587C8.8223 7.81034 8.8223 7.84868 8.83966 7.88123C8.87077 7.94127 8.93226 8.00927 9.01327 8.05773C9.02557 8.06569 9.04293 8.08088 9.04438 8.09318C9.04655 8.11199 9.03136 8.1308 9.02413 8.13948C9.014 8.1525 8.97783 8.15322 8.94311 8.13658C8.8903 8.11126 8.87149 8.09824 8.84039 8.10258C8.77239 8.11271 8.72754 8.22122 8.63133 8.22267C8.54018 8.20964 8.4787 8.07871 8.42517 8.11705C8.37236 8.15539 8.54959 8.26751 8.52789 8.31453C8.54308 8.32611 8.56767 8.36517 8.56189 8.39772C8.65231 8.37819 8.72465 8.3167 8.75141 8.26679C8.79771 8.20241 8.8346 8.16624 8.86209 8.15467C8.88885 8.14309 8.92358 8.15973 8.92358 8.18071C8.9337 8.17854 8.94889 8.19084 8.9677 8.19373C8.99519 8.20675 8.98434 8.23352 8.97638 8.24292C8.97566 8.23858 8.96119 8.23352 8.94745 8.22701C8.93298 8.22122 8.91055 8.2393 8.88958 8.25666C8.8686 8.2733 8.85341 8.31381 8.83243 8.33985C8.81145 8.36517 8.7572 8.41725 8.73405 8.44547C8.74707 8.465 8.74056 8.50117 8.74273 8.51853C8.74779 8.51853 8.76516 8.52287 8.77528 8.5301C8.78469 8.53734 8.78324 8.54529 8.7789 8.56482C8.77239 8.5887 8.68269 8.69576 8.65665 8.69503C8.61686 8.69503 8.59154 8.64801 8.59516 8.62848C8.55176 8.64874 8.53223 8.60099 8.53078 8.58363C8.51414 8.60606 8.44831 8.64223 8.42444 8.65091C8.4013 8.65959 8.39189 8.66248 8.38466 8.63137C8.37742 8.65235 8.31883 8.67405 8.30509 8.67695C8.22913 8.69214 8.15173 8.72541 8.0765 8.72469L7.89204 8.72107L7.91012 8.73337Z" fill="white" stroke="black" stroke-width="0.0260417" stroke-linecap="round" stroke-linejoin="round"/>
<path d="M8.17051 8.0324C8.17123 8.06134 8.12928 8.13585 8.19076 8.18865C8.22838 8.22048 8.29421 8.24725 8.31591 8.28848C8.33399 8.3232 8.30867 8.35431 8.30072 8.35214C8.26021 8.34346 8.20668 8.41363 8.18715 8.46137C8.16472 8.39409 8.1206 8.41073 8.06417 8.42014C8.07936 8.34997 8.02294 8.30584 7.93613 8.29427C7.9506 8.2798 7.92673 8.25738 7.90575 8.23857C7.88405 8.21976 7.81605 8.23495 7.80954 8.21976C7.80303 8.20457 7.84209 8.17563 7.82256 8.14453C7.80376 8.1127 7.72201 8.13151 7.69597 8.12066C7.70176 8.08159 7.7061 8.05989 7.68657 8.02517C7.66631 7.98972 7.57444 8.00058 7.52959 7.99045C7.56649 7.96441 7.58312 7.92607 7.56287 7.88411C7.54189 7.84071 7.44496 7.89207 7.44568 7.8342C7.44858 7.81394 7.55925 7.79731 7.6041 7.79441C7.64534 7.79224 7.79001 7.82552 7.92456 7.85807C7.95639 7.88483 8.16762 7.94994 8.17051 8.0324Z" fill="white" stroke="black" stroke-width="0.0159144" stroke-linecap="round" stroke-linejoin="round"/>
<path d="M8.53078 8.58369C8.59805 8.55042 8.66388 8.50701 8.73405 8.44552M7.47247 8.39417C7.53324 8.39706 7.66417 8.41659 7.70178 8.4665C7.7394 8.51714 7.76327 8.59743 7.50213 8.66543C7.58026 8.66616 7.69744 8.64662 7.73868 8.65675C7.77557 8.65024 7.85948 8.62275 7.89493 8.63433C7.88118 8.64084 7.83706 8.65313 7.83561 8.67918C7.83416 8.70522 7.85442 8.70956 7.89203 8.72113M8.14377 8.54607C8.23419 8.56344 8.36585 8.53667 8.38465 8.63143" stroke="black" stroke-width="0.0260417" stroke-linecap="round" stroke-linejoin="round"/>
<path d="M8.4505 7.8075C8.47871 7.83498 8.54671 7.88273 8.5836 7.90877C8.63207 7.94277 8.65449 7.90009 8.61688 7.8386" stroke="black" stroke-width="0.0173611" stroke-linecap="round" stroke-linejoin="round"/>
<path d="M7.80955 8.21979C7.90142 8.20098 8.03235 8.18217 8.10975 8.18579M7.69598 8.12069C7.83993 8.08162 7.99763 8.09826 8.09673 8.09971M8.07069 8.41438C8.09746 8.38038 8.1575 8.33191 8.20307 8.29068M7.93686 8.29357C7.98099 8.27549 8.06418 8.24438 8.13362 8.23209M7.92457 7.8581C8.00197 7.78214 8.09311 7.79299 8.17992 7.7467C8.232 7.71993 8.27685 7.64543 8.32966 7.59407C8.35353 7.57381 8.37089 7.5579 8.43093 7.56296C8.49387 7.56802 8.50182 7.58755 8.42081 7.59696C8.36294 7.60419 8.36077 7.6324 8.33762 7.67653C8.31809 7.71415 8.33689 7.75827 8.34847 7.78865C8.334 7.81904 8.31592 7.86244 8.31085 7.89571C8.30796 7.91235 8.31519 7.92537 8.33545 7.94997M7.5296 7.99048C7.73287 7.94635 8.02439 8.02231 8.07937 8.02592" stroke="black" stroke-width="0.0159144" stroke-linecap="round" stroke-linejoin="round"/>
<path d="M8.76949 8.31244C8.83532 8.27699 8.83604 8.20972 8.92357 8.18078M8.59515 8.62855C8.67907 8.58877 8.69715 8.55477 8.74272 8.5186M8.80276 7.99704C8.76298 8.00283 8.75647 7.97028 8.7174 7.96377C8.67545 7.95581 8.64724 7.9833 8.64724 8.00862C8.64724 8.03466 8.67328 8.05708 8.69932 8.05853C8.72536 8.05998 8.74706 8.04117 8.80132 8.04696M8.61179 7.69539C8.64362 7.69829 8.67617 7.70407 8.70004 7.68237M8.78396 7.84441C8.77745 7.85092 8.75647 7.84224 8.74634 7.82994C8.73694 7.81692 8.73187 7.79956 8.73983 7.7916C8.74706 7.78437 8.75864 7.78582 8.776 7.80028C8.79336 7.81475 8.79047 7.83718 8.78396 7.84441Z" stroke="black" stroke-width="0.0115741" stroke-linecap="round" stroke-linejoin="round"/>
<path d="M7.54409 7.0139C7.54204 7.01502 7.5395 7.01437 7.53703 7.01211C7.53456 7.00984 7.53236 7.00615 7.53093 7.00183C7.52949 6.99751 7.52892 6.99293 7.52936 6.98909C7.52979 6.98525 7.53119 6.98247 7.53324 6.98135C7.53103 6.98215 7.52841 6.98112 7.52597 6.9785C7.52352 6.97587 7.52145 6.97187 7.5202 6.96736C7.51895 6.96285 7.51864 6.95821 7.51932 6.95446C7.52 6.95071 7.52162 6.94815 7.52384 6.94735C7.52275 6.94781 7.52156 6.94782 7.52032 6.94738C7.51909 6.94695 7.51783 6.94608 7.51663 6.94482C7.51543 6.94356 7.5143 6.94194 7.51332 6.94005C7.51233 6.93817 7.51151 6.93604 7.51089 6.93381C7.51027 6.93158 7.50987 6.92928 7.50972 6.92704C7.50956 6.92481 7.50965 6.92268 7.50998 6.92078C7.51031 6.91888 7.51087 6.91725 7.51163 6.91597C7.5124 6.9147 7.51335 6.91381 7.51443 6.91335C7.51333 6.91382 7.51212 6.91384 7.51088 6.9134C7.50964 6.91296 7.5084 6.91207 7.50721 6.91079C7.50603 6.90951 7.50493 6.90786 7.50398 6.90593C7.50303 6.904 7.50225 6.90184 7.50168 6.89956C7.50111 6.89728 7.50077 6.89493 7.50066 6.89264C7.50056 6.89036 7.5007 6.88818 7.50108 6.88624C7.50184 6.88231 7.50352 6.87958 7.50575 6.87863C7.50346 6.87949 7.50084 6.87844 7.49847 6.87573C7.49611 6.87301 7.49419 6.86884 7.49313 6.86414C7.49207 6.85944 7.49197 6.85459 7.49285 6.85066C7.49372 6.84673 7.4955 6.84404 7.49779 6.84319C7.49549 6.84392 7.49293 6.84275 7.49069 6.83994C7.48844 6.83713 7.4867 6.83292 7.48584 6.82822C7.48497 6.82352 7.48506 6.81872 7.48608 6.81488C7.4871 6.81104 7.48898 6.80847 7.49128 6.80774C7.49011 6.80806 7.48888 6.80791 7.48765 6.8073C7.48642 6.80669 7.48523 6.80562 7.48413 6.80417C7.48303 6.80272 7.48206 6.8009 7.48126 6.79883C7.48046 6.79676 7.47985 6.79447 7.47947 6.7921C7.47909 6.78972 7.47894 6.78731 7.47904 6.78499C7.47914 6.78267 7.47948 6.7805 7.48004 6.7786C7.48117 6.77475 7.48313 6.77222 7.4855 6.77157C7.48308 6.77227 7.4805 6.771 7.47832 6.76803C7.47614 6.76507 7.47453 6.76065 7.47386 6.75576C7.47319 6.75087 7.4735 6.7459 7.47474 6.74194C7.47597 6.73799 7.47802 6.73538 7.48043 6.73468C7.47805 6.73526 7.47558 6.73391 7.47356 6.73093C7.47153 6.72795 7.47013 6.72358 7.46965 6.71879C7.46917 6.71399 7.46966 6.70916 7.471 6.70536C7.47234 6.70156 7.47444 6.69909 7.47682 6.69851C7.47438 6.69896 7.47192 6.69744 7.46999 6.6943C7.46806 6.69116 7.46682 6.68664 7.46653 6.68175C7.46624 6.67686 7.46693 6.67199 7.46846 6.66821C7.46998 6.66444 7.4722 6.66207 7.47465 6.66162C7.47219 6.66213 7.46976 6.66068 7.46789 6.65758C7.46602 6.65448 7.46486 6.64999 7.46467 6.6451C7.46448 6.64021 7.46527 6.63531 7.46687 6.63149C7.46847 6.62767 7.47075 6.62524 7.4732 6.62473C7.47068 6.62506 7.4683 6.62339 7.46658 6.6201C7.46487 6.6168 7.46396 6.61215 7.46406 6.60716C7.46415 6.60217 7.46525 6.59726 7.4671 6.5935C7.46895 6.58974 7.4714 6.58744 7.47392 6.58711C7.47144 6.5873 7.46918 6.58554 7.46762 6.58222C7.46607 6.5789 7.46536 6.57428 7.46565 6.56939C7.46594 6.5645 7.4672 6.55973 7.46916 6.55613C7.47112 6.55254 7.47361 6.55041 7.47609 6.55022C7.47358 6.55041 7.47136 6.54865 7.46992 6.54533C7.46848 6.542 7.46794 6.53739 7.46842 6.5325C7.4689 6.5276 7.47036 6.52284 7.47248 6.51924C7.47459 6.51565 7.47719 6.51352 7.47971 6.51333C7.47713 6.51336 7.47495 6.51142 7.47367 6.50791C7.47238 6.50441 7.47209 6.49964 7.47286 6.49466C7.47363 6.48967 7.47539 6.48487 7.47776 6.48132C7.48013 6.47776 7.48291 6.47575 7.4855 6.47571C7.48295 6.47554 7.48094 6.47343 7.47988 6.46985C7.47883 6.46628 7.47884 6.46152 7.47989 6.45662C7.48095 6.45173 7.48297 6.44711 7.48551 6.44377C7.48805 6.44043 7.49091 6.43865 7.49345 6.43882C7.4922 6.43869 7.49108 6.4381 7.49017 6.43707C7.48927 6.43604 7.48858 6.4346 7.48816 6.43283C7.48732 6.42926 7.48759 6.42456 7.48894 6.41976C7.4896 6.41739 7.49051 6.41506 7.4916 6.41291C7.4927 6.41077 7.49396 6.40885 7.49532 6.40726C7.49807 6.40405 7.50104 6.40239 7.50358 6.40265C7.50229 6.4025 7.50116 6.40189 7.50027 6.40084C7.49939 6.39979 7.49875 6.39834 7.49841 6.39655C7.49806 6.39477 7.49801 6.39269 7.49826 6.39044C7.49851 6.38819 7.49906 6.38581 7.49986 6.38343C7.50067 6.38106 7.50173 6.37873 7.50297 6.3766C7.50421 6.37446 7.50561 6.37255 7.5071 6.37098C7.50859 6.3694 7.51013 6.36819 7.51163 6.36742C7.51314 6.36665 7.51458 6.36633 7.51588 6.36648C7.51322 6.36598 7.51147 6.3636 7.51101 6.35986C7.51056 6.35612 7.51143 6.35132 7.51345 6.34653C7.51546 6.34173 7.51845 6.33733 7.52176 6.33429C7.52506 6.33124 7.52841 6.32981 7.53107 6.33031C7.52844 6.32958 7.52687 6.32701 7.5267 6.32318C7.52653 6.31934 7.52779 6.31454 7.53019 6.30984C7.53258 6.30514 7.53593 6.30092 7.53949 6.29811C7.54304 6.2953 7.54652 6.29414 7.54915 6.29487C7.54664 6.29385 7.54532 6.29109 7.54551 6.28718C7.5457 6.28328 7.54736 6.27855 7.55015 6.27404C7.55293 6.26954 7.5566 6.26561 7.56034 6.26314C7.56409 6.26067 7.56761 6.25985 7.57013 6.26087C7.56884 6.26032 7.56788 6.25934 7.56728 6.258C7.56669 6.25665 7.56649 6.25497 7.56669 6.25303C7.56709 6.24913 7.56909 6.24446 7.57225 6.24004C7.57542 6.23563 7.57949 6.23184 7.58357 6.2295C7.58765 6.22717 7.5914 6.22648 7.594 6.22759C7.59158 6.22613 7.59071 6.22309 7.59157 6.21914C7.59244 6.21518 7.59497 6.21065 7.59861 6.20652C7.60226 6.2024 7.60672 6.19902 7.61101 6.19714C7.6153 6.19526 7.61907 6.19502 7.62149 6.19649C7.61903 6.19486 7.61826 6.19171 7.61937 6.18771C7.62048 6.18371 7.62336 6.1792 7.62739 6.17517C7.63142 6.17115 7.63626 6.16793 7.64085 6.16623C7.64545 6.16452 7.64941 6.16448 7.65187 6.1661" fill="white"/>
<path d="M7.54409 7.0139C7.54204 7.01502 7.5395 7.01437 7.53703 7.01211C7.53456 7.00984 7.53236 7.00615 7.53093 7.00183C7.52949 6.99751 7.52892 6.99293 7.52936 6.98909C7.52979 6.98525 7.53119 6.98247 7.53324 6.98135C7.53103 6.98215 7.52841 6.98112 7.52597 6.9785C7.52352 6.97587 7.52145 6.97187 7.5202 6.96736C7.51895 6.96285 7.51864 6.95821 7.51932 6.95446C7.52 6.95071 7.52162 6.94815 7.52384 6.94735C7.52275 6.94781 7.52156 6.94782 7.52032 6.94738C7.51909 6.94695 7.51783 6.94608 7.51663 6.94482C7.51543 6.94356 7.5143 6.94194 7.51332 6.94005C7.51233 6.93817 7.51151 6.93604 7.51089 6.93381C7.51027 6.93158 7.50987 6.92928 7.50972 6.92704C7.50956 6.92481 7.50965 6.92268 7.50998 6.92078C7.51031 6.91888 7.51087 6.91725 7.51163 6.91597C7.5124 6.9147 7.51335 6.91381 7.51443 6.91335C7.51333 6.91382 7.51212 6.91384 7.51088 6.9134C7.50964 6.91296 7.5084 6.91207 7.50721 6.91079C7.50603 6.90951 7.50493 6.90786 7.50398 6.90593C7.50303 6.904 7.50225 6.90184 7.50168 6.89956C7.50111 6.89728 7.50077 6.89493 7.50066 6.89264C7.50056 6.89036 7.5007 6.88818 7.50108 6.88624C7.50184 6.88231 7.50352 6.87958 7.50575 6.87863C7.50346 6.87949 7.50084 6.87844 7.49847 6.87573C7.49611 6.87301 7.49419 6.86884 7.49313 6.86414C7.49207 6.85944 7.49197 6.85459 7.49285 6.85066C7.49372 6.84673 7.4955 6.84404 7.49779 6.84319C7.49549 6.84392 7.49293 6.84275 7.49069 6.83994C7.48844 6.83713 7.4867 6.83292 7.48584 6.82822C7.48497 6.82352 7.48506 6.81872 7.48608 6.81488C7.4871 6.81104 7.48898 6.80847 7.49128 6.80774C7.49011 6.80806 7.48888 6.80791 7.48765 6.8073C7.48642 6.80669 7.48523 6.80562 7.48413 6.80417C7.48303 6.80272 7.48206 6.8009 7.48126 6.79883C7.48046 6.79676 7.47985 6.79447 7.47947 6.7921C7.47909 6.78972 7.47894 6.78731 7.47904 6.78499C7.47914 6.78267 7.47948 6.7805 7.48004 6.7786C7.48117 6.77475 7.48313 6.77222 7.4855 6.77157C7.48308 6.77227 7.4805 6.771 7.47832 6.76803C7.47614 6.76507 7.47453 6.76065 7.47386 6.75576C7.47319 6.75087 7.4735 6.7459 7.47474 6.74194C7.47597 6.73799 7.47802 6.73538 7.48043 6.73468C7.47805 6.73526 7.47558 6.73391 7.47356 6.73093C7.47153 6.72795 7.47013 6.72358 7.46965 6.71879C7.46917 6.71399 7.46966 6.70916 7.471 6.70536C7.47234 6.70156 7.47444 6.69909 7.47682 6.69851C7.47438 6.69896 7.47192 6.69744 7.46999 6.6943C7.46806 6.69116 7.46682 6.68664 7.46653 6.68175C7.46624 6.67686 7.46693 6.67199 7.46846 6.66821C7.46998 6.66444 7.4722 6.66207 7.47465 6.66162C7.47219 6.66213 7.46976 6.66068 7.46789 6.65758C7.46602 6.65448 7.46486 6.64999 7.46467 6.6451C7.46448 6.64021 7.46527 6.63531 7.46687 6.63149C7.46847 6.62767 7.47075 6.62524 7.4732 6.62473C7.47068 6.62506 7.4683 6.62339 7.46658 6.6201C7.46487 6.6168 7.46396 6.61215 7.46406 6.60716C7.46415 6.60217 7.46525 6.59726 7.4671 6.5935C7.46895 6.58974 7.4714 6.58744 7.47392 6.58711C7.47144 6.5873 7.46918 6.58554 7.46762 6.58222C7.46607 6.5789 7.46536 6.57428 7.46565 6.56939C7.46594 6.5645 7.4672 6.55973 7.46916 6.55613C7.47112 6.55254 7.47361 6.55041 7.47609 6.55022C7.47358 6.55041 7.47136 6.54865 7.46992 6.54533C7.46848 6.542 7.46794 6.53739 7.46842 6.5325C7.4689 6.5276 7.47036 6.52284 7.47248 6.51924C7.47459 6.51565 7.47719 6.51352 7.47971 6.51333C7.47713 6.51336 7.47495 6.51142 7.47367 6.50791C7.47238 6.50441 7.47209 6.49964 7.47286 6.49466C7.47363 6.48967 7.47539 6.48487 7.47776 6.48132C7.48013 6.47776 7.48291 6.47575 7.4855 6.47571C7.48295 6.47554 7.48094 6.47343 7.47988 6.46985C7.47883 6.46628 7.47884 6.46152 7.47989 6.45662C7.48095 6.45173 7.48297 6.44711 7.48551 6.44377C7.48805 6.44043 7.49091 6.43865 7.49345 6.43882C7.4922 6.43869 7.49108 6.4381 7.49017 6.43707C7.48927 6.43604 7.48858 6.4346 7.48816 6.43283C7.48732 6.42926 7.48759 6.42456 7.48894 6.41976C7.4896 6.41739 7.49051 6.41506 7.4916 6.41291C7.4927 6.41077 7.49396 6.40885 7.49532 6.40726C7.49807 6.40405 7.50104 6.40239 7.50358 6.40265C7.50229 6.4025 7.50116 6.40189 7.50027 6.40084C7.49939 6.39979 7.49875 6.39834 7.49841 6.39655C7.49806 6.39477 7.49801 6.39269 7.49826 6.39044C7.49851 6.38819 7.49906 6.38581 7.49986 6.38343C7.50067 6.38106 7.50173 6.37873 7.50297 6.3766C7.50421 6.37446 7.50561 6.37255 7.5071 6.37098C7.50859 6.3694 7.51013 6.36819 7.51163 6.36742C7.51314 6.36665 7.51458 6.36633 7.51588 6.36648C7.51322 6.36598 7.51147 6.3636 7.51101 6.35986C7.51056 6.35612 7.51143 6.35132 7.51345 6.34653C7.51546 6.34173 7.51845 6.33733 7.52176 6.33429C7.52506 6.33124 7.52841 6.32981 7.53107 6.33031C7.52844 6.32958 7.52687 6.32701 7.5267 6.32318C7.52653 6.31934 7.52779 6.31454 7.53019 6.30984C7.53258 6.30514 7.53593 6.30092 7.53949 6.29811C7.54304 6.2953 7.54652 6.29414 7.54915 6.29487C7.54664 6.29385 7.54532 6.29109 7.54551 6.28718C7.5457 6.28328 7.54736 6.27855 7.55015 6.27404C7.55293 6.26954 7.5566 6.26561 7.56034 6.26314C7.56409 6.26067 7.56761 6.25985 7.57013 6.26087C7.56884 6.26032 7.56788 6.25934 7.56728 6.258C7.56669 6.25665 7.56649 6.25497 7.56669 6.25303C7.56709 6.24913 7.56909 6.24446 7.57225 6.24004C7.57542 6.23563 7.57949 6.23184 7.58357 6.2295C7.58765 6.22717 7.5914 6.22648 7.594 6.22759C7.59158 6.22613 7.59071 6.22309 7.59157 6.21914C7.59244 6.21518 7.59497 6.21065 7.59861 6.20652C7.60226 6.2024 7.60672 6.19902 7.61101 6.19714C7.6153 6.19526 7.61907 6.19502 7.62149 6.19649C7.61903 6.19486 7.61826 6.19171 7.61937 6.18771C7.62048 6.18371 7.62336 6.1792 7.62739 6.17517C7.63142 6.17115 7.63626 6.16793 7.64085 6.16623C7.64545 6.16452 7.64941 6.16448 7.65187 6.1661" stroke="black" stroke-width="0.0072338" stroke-linecap="round" stroke-linejoin="round"/>
<path d="M7.58533 7.00164L7.5441 7.01394M7.5781 6.96909L7.53325 6.98139M7.57159 6.93581L7.52384 6.94739M7.56507 6.90181L7.51444 6.91339M7.56001 6.86782L7.50576 6.87867M7.55495 6.83309L7.4978 6.84322M7.55133 6.79837L7.49129 6.80778M7.54844 6.76365L7.4855 6.77161M7.54699 6.72893L7.48044 6.73471M7.54627 6.69493L7.47682 6.69855M7.54699 6.66021L7.47465 6.66165M7.54844 6.62621L7.47321 6.62476M7.55133 6.59221L7.47393 6.58714M7.55639 6.55893L7.4761 6.55025M7.56218 6.52638L7.47972 6.51336M7.57014 6.49455L7.4855 6.47574M7.57954 6.46272L7.49346 6.43885M7.59112 6.43234L7.50359 6.40268M7.60414 6.40341L7.51588 6.36651M7.6186 6.37447L7.53108 6.33034M7.63597 6.34771L7.54916 6.2949M7.65477 6.32166L7.57014 6.2609M7.67648 6.29635L7.59401 6.22762M7.69962 6.2732L7.6215 6.19652M7.72567 6.2515L7.65188 6.16614" stroke="black" stroke-width="0.0072338" stroke-linecap="round" stroke-linejoin="round"/>
<path d="M8.0447 6.5249C8.00202 6.5343 7.98032 6.53575 7.92534 6.53792C7.91449 6.56324 7.91376 6.63196 7.91449 6.65655C8.03095 6.76723 8.1438 6.90974 8.15103 7.04428C8.1872 7.07322 8.21035 7.10288 8.2306 7.15641C8.31379 7.11518 8.39771 7.04428 8.4686 7.0262C8.51489 7.01463 8.59663 7.01101 8.63714 7.03488C8.65957 7.0479 8.85777 7.16871 8.91565 7.20415C8.97279 7.24032 9.01258 7.28734 9.04079 7.32857C9.069 7.36981 9.0719 7.44431 9.06249 7.46312L8.89611 7.41538C8.88454 7.38789 8.89394 7.35606 8.90696 7.32857C8.91926 7.30253 8.91926 7.30108 8.89539 7.28228C8.87948 7.26926 8.85705 7.27287 8.84114 7.27649C8.82522 7.27938 8.7999 7.27287 8.78544 7.24972C8.76952 7.22585 8.59519 7.14917 8.56553 7.14483C8.53659 7.14049 8.49247 7.13977 8.4563 7.17377C8.43894 7.20198 8.38034 7.29313 8.33405 7.33436C8.32175 7.34666 8.31958 7.3604 8.32681 7.37487C8.32681 7.37487 8.43749 7.37053 8.50477 7.37993C8.57276 7.39006 8.6574 7.46023 8.69429 7.50435C8.86356 7.65988 8.92794 7.74452 8.98292 7.79805C9.00751 7.82192 9.03428 7.84868 9.02849 7.88557L8.86356 7.88268C8.86573 7.82336 8.85416 7.78068 8.84403 7.74813C8.8245 7.72137 8.78978 7.73439 8.77603 7.73511C8.76229 7.73656 8.74131 7.7069 8.72467 7.68014C8.70369 7.63312 8.614 7.57018 8.57421 7.54559C8.53442 7.52099 8.52068 7.53184 8.47872 7.52823C8.45341 7.52027 8.39553 7.51014 8.35358 7.52678C8.31162 7.54342 8.18865 7.58248 8.07508 7.5955C8.03312 7.61431 7.90942 7.63746 7.77849 7.66567C7.68011 7.68665 7.45948 7.72209 7.41246 7.72281C7.39799 7.82915 7.28659 7.97817 7.25477 7.99481C7.22221 8.03821 7.22366 8.07655 7.24608 8.09608C7.26923 8.11633 7.43778 8.11633 7.47974 8.11778C7.52242 8.1185 7.60633 8.1214 7.61863 8.12357C7.64756 8.12791 7.68373 8.16263 7.72713 8.1865C7.75824 8.20314 7.76475 8.2205 7.78428 8.25161C7.79658 8.27186 7.81538 8.29139 7.8219 8.30875L7.62297 8.30441C7.62514 8.26246 7.60054 8.22701 7.57233 8.22701C7.54484 8.24654 7.51084 8.26969 7.47323 8.2545C7.31915 8.24509 7.22077 8.25161 7.07754 8.2422C7.03703 8.24003 7.00086 8.18144 7.01605 8.12791C7.03124 8.07365 7.02473 8.03676 7.0146 7.9977C7.00014 8.01361 6.94371 8.06931 6.91188 8.10621C6.86269 8.16191 6.89091 8.22195 6.90899 8.25233C6.93865 8.27765 7.10213 8.43534 7.12383 8.48309C7.14047 8.5084 7.20558 8.55976 7.27068 8.61402C7.29166 8.66248 7.33072 8.68636 7.36183 8.71818L7.10937 8.71891C7.11732 8.70299 7.12094 8.6878 7.12456 8.65236C7.126 8.63934 7.10937 8.6104 7.07681 8.61402C7.04354 8.61836 7.0146 8.58002 7.00448 8.54891C6.99435 8.51709 6.88295 8.37458 6.84967 8.34275C6.8164 8.31165 6.71585 8.20893 6.69849 8.20242C6.6804 8.1959 6.67606 8.15901 6.69704 8.13731C6.71874 8.11561 6.78095 8.01651 6.80048 7.95213C6.8135 7.908 6.79759 7.90438 6.78746 7.89064C6.67751 7.8089 6.5813 7.70039 6.52415 7.59695C6.50317 7.60997 6.38309 7.60924 6.32305 7.57959C6.27748 7.55788 6.21672 7.55137 6.18416 7.60273C6.16536 7.63312 6.16608 7.69026 6.19935 7.71558C6.2471 7.75175 6.30424 7.81107 6.35922 7.87906C6.4142 7.94706 6.36646 7.99191 6.29701 8.05123C6.30714 8.07727 6.29556 8.07293 6.30858 8.11633C6.33173 8.14961 6.33173 8.23352 6.30207 8.25088C6.27314 8.26969 6.23552 8.2885 6.2008 8.32901C6.16608 8.37096 6.15089 8.33045 6.16608 8.26101C6.17476 8.21761 6.13931 8.18144 6.10893 8.14816C6.07927 8.11489 6.09446 8.01795 6.114 7.98902C6.1328 7.96153 6.15233 7.90511 6.11038 7.86315C6.06842 7.82119 5.98523 7.73294 5.99825 7.61575C6.01417 7.46095 6.16391 7.41176 6.25288 7.45227C6.39756 7.51737 6.48364 7.50291 6.52705 7.4935C6.57045 7.42334 6.6247 7.35678 6.71368 7.30615C6.79687 7.2584 6.96107 7.19258 7.12239 7.16726L7.52314 7.02403C7.57739 7.00812 7.57522 6.96037 7.57016 6.93288C7.51808 6.66234 7.53399 6.37661 7.7539 6.23121C7.77705 6.21023 7.76981 6.15091 7.80453 6.10461C7.81104 6.12487 7.85589 6.17985 7.86602 6.21529C7.96078 6.2464 8.13222 6.30644 8.1995 6.34044C8.23205 6.35635 8.26605 6.35852 8.2863 6.36648C8.30439 6.37371 8.32103 6.3918 8.3326 6.41422C8.35069 6.44677 8.33043 6.4786 8.31307 6.48801C8.30005 6.49452 8.22048 6.46775 8.20095 6.48584C8.20456 6.50392 8.22482 6.52345 8.2675 6.54081C8.28703 6.54949 8.25737 6.58566 8.23422 6.58783C8.2212 6.58928 8.20312 6.58349 8.19154 6.57481C8.14452 6.56107 8.09389 6.54154 8.0447 6.5249Z" fill="white" stroke="black" stroke-width="0.0260417" stroke-linecap="round" stroke-linejoin="round"/>
<path d="M7.7698 6.34839C7.76763 6.51477 7.82405 6.59868 7.91447 6.65655M8.23059 7.1564C8.2465 7.22657 8.24433 7.29602 8.23131 7.35678M7.01459 7.99769C7.14046 7.93838 7.24969 7.79587 7.24607 7.71051M7.24607 7.71051C7.2439 7.6606 7.20484 7.58392 7.09271 7.5803M7.24607 7.71051C7.28079 7.72426 7.35747 7.71558 7.41245 7.72281M8.03383 7.31772C8.13149 7.32206 8.26242 7.37776 8.3268 7.37486M7.98826 7.51231C8.07072 7.53039 8.07217 7.57018 8.24361 7.5615M7.94702 6.96037C8.04323 6.96326 8.09821 7.01028 8.15102 7.04428" stroke="black" stroke-width="0.0260417" stroke-linecap="round" stroke-linejoin="round"/>
<path d="M7.22803 7.78864C7.2953 7.78791 7.34594 7.77923 7.37343 7.71992M7.76984 6.34839C7.76622 6.48438 7.8212 6.51838 7.92537 6.53791" stroke="black" stroke-width="0.0159144" stroke-linecap="round" stroke-linejoin="round"/>
<path d="M8.29429 6.3715C8.28778 6.40622 8.28706 6.43371 8.34348 6.42864M8.04328 6.27673C7.99988 6.38813 8.21906 6.4026 8.22774 6.47277M6.99872 7.19615C7.10578 7.24317 7.09348 7.45584 7.09276 7.58026" stroke="black" stroke-width="0.0115741" stroke-linecap="round" stroke-linejoin="round"/>
<path d="M8.17635 6.47287C8.14163 6.54087 8.06568 6.64648 7.98755 6.70291C7.87181 6.78537 7.74667 6.84686 7.58969 6.88375C7.56872 6.88881 7.54195 6.89532 7.51157 6.88881C7.48191 6.88303 7.44936 6.8635 7.42838 6.82082C7.41681 6.79839 7.42259 6.69133 7.46238 6.67614C7.50433 6.66095 7.54267 6.65589 7.58246 6.65806C7.60416 6.6595 7.63454 6.66601 7.63237 6.69567C7.63093 6.72099 7.60705 6.73618 7.58174 6.72895C7.55135 6.72027 7.50506 6.70291 7.47902 6.72027C7.46093 6.73184 7.45008 6.78031 7.46238 6.80201C7.48119 6.83673 7.49999 6.84758 7.51953 6.8512C7.53906 6.85554 7.56003 6.8512 7.58101 6.84613C7.73148 6.81069 7.85083 6.7521 7.9644 6.67108C8.03891 6.61755 8.11631 6.50615 8.14236 6.45479L8.17635 6.47287ZM7.5868 6.68482C7.54195 6.67542 7.46961 6.68627 7.4631 6.70508C7.49638 6.6841 7.53761 6.69061 7.58463 6.70508C7.5991 6.70942 7.60778 6.68844 7.5868 6.68482ZM7.87977 6.31807L7.89713 6.28479C7.90075 6.27756 7.88411 6.19799 7.96657 6.24067C8.04904 6.28335 7.98249 6.32024 7.97887 6.32819C7.97525 6.33543 7.96151 6.36075 7.96151 6.36075" fill="white"/>
<path d="M7.87977 6.31807L7.89713 6.28479C7.90075 6.27756 7.88411 6.19799 7.96657 6.24067C8.04904 6.28335 7.98249 6.32024 7.97887 6.32819C7.97525 6.33543 7.96151 6.36075 7.96151 6.36075M8.17635 6.47287C8.14163 6.54087 8.06568 6.64648 7.98755 6.70291C7.87181 6.78537 7.74667 6.84686 7.58969 6.88375C7.56872 6.88881 7.54195 6.89532 7.51157 6.88881C7.48191 6.88303 7.44936 6.8635 7.42838 6.82082C7.41681 6.79839 7.42259 6.69133 7.46238 6.67614C7.50433 6.66095 7.54267 6.65589 7.58246 6.65806C7.60416 6.6595 7.63454 6.66601 7.63237 6.69567C7.63093 6.72099 7.60705 6.73618 7.58174 6.72895C7.55135 6.72027 7.50506 6.70291 7.47902 6.72027C7.46093 6.73184 7.45008 6.78031 7.46238 6.80201C7.48119 6.83673 7.49999 6.84758 7.51953 6.8512C7.53906 6.85554 7.56003 6.8512 7.58101 6.84613C7.73148 6.81069 7.85083 6.7521 7.9644 6.67108C8.03891 6.61755 8.11631 6.50615 8.14236 6.45479L8.17635 6.47287ZM7.5868 6.68482C7.54195 6.67542 7.46961 6.68627 7.4631 6.70508C7.49638 6.6841 7.53761 6.69061 7.58463 6.70508C7.5991 6.70942 7.60778 6.68844 7.5868 6.68482Z" stroke="black" stroke-width="0.0101273" stroke-linecap="round" stroke-linejoin="round"/>
<path d="M7.74091 6.245L8.20676 6.48877" stroke="black" stroke-width="0.0173611" stroke-linecap="round" stroke-linejoin="round"/>
<path d="M7.14987 6.26301C7.0674 6.27096 6.91549 6.25433 6.83303 6.23986C6.79324 6.23262 6.68112 6.39538 6.6218 6.40696C6.56248 6.41853 6.50606 6.2876 6.41853 6.31871C6.37802 6.34981 6.4207 6.5104 6.3961 6.53066C6.37079 6.55091 6.29338 6.44964 6.24564 6.48364C6.1979 6.51764 6.28615 6.73103 6.263 6.75563C6.2413 6.77878 6.13279 6.66231 6.10024 6.68401C6.06769 6.70571 6.13569 7.03775 6.10386 7.05511C6.07131 7.07247 5.92084 6.96758 5.90131 7.01243C5.88178 7.05728 6.11326 7.16289 6.17837 7.16578L6.24347 7.14119C6.26517 7.15276 6.45036 7.16795 6.46844 7.1694L6.57478 7.06162C6.73754 6.84967 6.91621 6.65074 7.14987 6.66304V6.26301Z" fill="white" stroke="black" stroke-width="0.0159144" stroke-linecap="round" stroke-linejoin="round"/>
<path d="M6.43446 6.31504L6.74478 6.30347M6.24855 6.48142L6.40046 6.42933M6.10459 6.67962L6.24276 6.61886M5.90277 7.00876L6.09591 6.8337M6.24493 7.1368C6.32667 6.99285 6.49377 6.8337 6.63049 6.74979M6.10532 7.05433C6.22178 6.914 6.55526 6.6789 6.6616 6.66588M6.39539 6.53061C6.53356 6.46695 6.73104 6.45972 6.88801 6.4467M6.61819 6.40763C6.63772 6.40546 6.87499 6.3758 6.97627 6.38087M6.26084 6.75847C6.44531 6.65069 6.62543 6.56316 6.8287 6.4995" stroke="black" stroke-width="0.0159144" stroke-linecap="round" stroke-linejoin="round"/>
<path d="M7.81468 9.00979C7.82915 9.01413 7.84434 9.04524 7.84434 9.04524C7.84434 9.04524 7.81323 9.06043 7.80021 9.05753L6.35345 8.62495C6.31077 8.61193 6.32886 8.5461 6.37371 8.55985L7.81468 9.00979ZM6.4323 6.98794C6.42362 6.95829 6.39758 6.93152 6.37805 6.9279C6.36575 6.92646 6.33392 6.95901 6.33537 6.96914C6.33898 6.99011 6.38094 7.01688 6.39758 7.02267L6.4323 6.98794ZM6.56902 7.04147L6.44749 7.163C6.4323 7.17892 6.46051 7.20423 6.47498 7.18977L6.59651 7.06824C6.6117 7.05305 6.58276 7.02773 6.56902 7.04147ZM6.50898 7.15577L6.88586 7.54639L6.96398 7.55797L6.95241 7.47984L6.56179 7.10296L6.50898 7.15577Z" fill="white" stroke="black" stroke-width="0.0202546" stroke-linecap="round" stroke-linejoin="round"/>
<path d="M6.90903 7.50302L6.53577 7.12903" stroke="black" stroke-width="0.00578704" stroke-linecap="round" stroke-linejoin="round"/>
<path d="M7.40886 6.41786C7.40597 6.39761 7.41682 6.38531 7.43201 6.37446C7.45805 6.35637 7.45082 6.36506 7.46528 6.37229C7.47903 6.37952 7.4935 6.3911 7.50145 6.39761C7.51158 6.40484 7.51737 6.40122 7.52098 6.39544C7.52749 6.38531 7.52966 6.36506 7.53617 6.35855C7.54124 6.35927 7.5492 6.35565 7.54847 6.34625C7.55643 6.3448 7.5586 6.33974 7.55788 6.33178C7.55643 6.32599 7.56149 6.31008 7.5709 6.31297C7.58102 6.31587 7.602 6.32527 7.60273 6.31153C7.60417 6.3014 7.61068 6.26378 7.6143 6.23485C7.64396 6.23991 7.63383 6.20591 7.64468 6.20157C7.67651 6.21315 7.68808 6.16251 7.67 6.14442C7.67289 6.10392 7.70255 6.09668 7.75174 6.09741C7.74812 6.06992 7.71051 6.06196 7.68447 6.02724C7.6606 5.99179 7.58175 5.94622 7.49711 5.94767C7.41248 5.94984 7.34303 6.02868 7.31193 6.06341C7.28082 6.09813 7.21644 6.11332 7.19691 6.1097C7.1781 6.10536 7.16942 6.09162 7.14772 6.08945C7.14772 6.08945 7.09274 6.09089 7.06381 6.09162C7.03487 6.09162 7.02402 6.11187 6.99147 6.10753C6.97194 6.10609 6.89237 6.10681 6.86922 6.11477C6.84607 6.12272 6.8685 6.17481 6.89309 6.17698C6.90466 6.17842 6.96543 6.18204 6.98785 6.19506C7.01317 6.20881 7.08768 6.21242 7.12095 6.20012C7.18317 6.1777 7.2244 6.21966 7.29312 6.23629L7.31482 6.24425C7.31337 6.28042 7.31554 6.29923 7.29746 6.29923C7.28082 6.29923 7.25333 6.29778 7.23814 6.29633C7.22946 6.29633 7.19402 6.27246 7.17376 6.26812C7.14266 6.26161 7.12385 6.27463 7.11155 6.2797C7.03126 6.31297 6.73395 6.54445 6.70501 6.59726C6.67246 6.65585 6.62399 6.69058 6.5777 6.77811C6.55166 6.82657 6.50247 6.88589 6.47281 6.96763C6.42289 6.99006 6.37153 7.03708 6.36358 7.04793C6.3549 7.0595 6.37153 7.07831 6.38094 7.07758C6.37732 7.08482 6.39468 7.10435 6.40843 7.1029C6.40047 7.11158 6.42217 7.1275 6.4323 7.1246C6.42651 7.13328 6.4417 7.15716 6.454 7.15643L6.57408 7.03635C6.57408 6.98499 6.60446 6.92784 6.62038 6.89963C6.68476 6.82151 6.76867 6.69202 6.79182 6.6573C6.80411 6.63777 6.94517 6.58207 6.98207 6.5459C6.97266 6.64717 6.97556 6.71662 6.98858 6.77666C7.00883 6.87504 7.04138 6.93797 7.06091 7.02116C7.08117 7.10363 7.06091 7.15426 7.06453 7.19333C7.06598 7.22371 7.07683 7.2266 7.10576 7.24324C7.13542 7.26132 7.24972 7.24613 7.28589 7.25698C7.35316 7.27796 7.41465 7.27941 7.43924 7.28375C7.52315 7.27217 7.58609 7.29532 7.61285 7.3163C7.64034 7.338 7.69387 7.46242 7.71413 7.50872C7.73366 7.55429 7.84216 7.61795 7.86459 7.64399C7.88774 7.66931 7.90437 7.74309 7.90003 7.77565C7.89642 7.80747 7.90076 7.82194 7.93403 7.81833C7.96008 7.81471 8.05628 7.83279 8.07437 7.8422C8.09173 7.85088 8.13369 7.88415 8.14815 7.8856C8.16262 7.88705 8.23134 7.89428 8.26317 7.89139C8.295 7.88849 8.29355 7.83641 8.27981 7.83424C8.26679 7.83279 8.21181 7.82122 8.17926 7.81326C8.14743 7.80603 8.07582 7.74237 8.0476 7.70765C8.01867 7.6722 8.0042 7.62301 7.98612 7.58757C7.96731 7.55212 7.85953 7.40094 7.83131 7.36694C7.82263 7.3503 7.76549 7.21358 7.75247 7.17958C7.74017 7.14558 7.71196 7.14197 7.69025 7.13545C7.60056 7.10941 7.56583 7.09784 7.47396 7.08048C7.40741 7.06818 7.39222 7.06456 7.38644 7.01537C7.38209 6.97848 7.35388 6.90831 7.36835 6.85985C7.37341 6.84393 7.38282 6.79257 7.38716 6.76942C7.39222 6.74628 7.40669 6.70794 7.41031 6.68479C7.41465 6.65368 7.42043 6.55892 7.42043 6.53433C7.42043 6.48948 7.41392 6.45475 7.40886 6.41786ZM7.4783 6.82512C7.46962 6.8273 7.42767 6.83308 7.40597 6.8244C7.39873 6.82078 7.40018 6.80632 7.40741 6.80632C7.40307 6.80342 7.39584 6.78823 7.40597 6.78606C7.40018 6.78462 7.39295 6.76291 7.40307 6.76219C7.39295 6.75568 7.39295 6.74338 7.40307 6.73904C7.41031 6.73326 7.45516 6.73181 7.47396 6.7347C7.48554 6.75785 7.48264 6.80053 7.4783 6.82512Z" fill="white" stroke="black" stroke-width="0.0260417" stroke-linecap="round" stroke-linejoin="round"/>
<path d="M7.31553 6.24862C7.33651 6.26164 7.33362 6.24717 7.37123 6.23632C7.40813 6.22547 7.43272 6.25802 7.42115 6.2884C7.4103 6.31878 7.40885 6.3441 7.44864 6.34627C7.48842 6.34844 7.49783 6.31444 7.50651 6.29781C7.51591 6.28189 7.53327 6.28262 7.5434 6.26308C7.55136 6.22257 7.59259 6.23198 7.61791 6.23632M7.66927 6.1459C7.64901 6.15675 7.60561 6.12203 7.59838 6.08875C7.58608 6.04969 7.55787 6.02148 7.50795 6.02075C7.45804 6.02075 7.36328 6.04896 7.34302 6.10756C7.33651 6.15168 7.33289 6.18062 7.33217 6.18858C7.31409 6.19509 7.29673 6.1893 7.29528 6.19726C7.29673 6.21462 7.30034 6.22981 7.29022 6.23704M6.98206 6.54593L7.08261 6.50252" stroke="black" stroke-width="0.0260417" stroke-linecap="round" stroke-linejoin="round"/>
<path d="M7.08263 6.50244C7.11084 6.5661 7.13038 6.6312 7.16944 6.65363M7.22441 6.67822C7.26637 6.6992 7.29458 6.69197 7.3445 6.68401M7.09348 7.15131C7.19765 7.15638 7.24033 7.2034 7.32641 7.23016C7.41177 7.2562 7.5333 7.24174 7.64398 7.29382M7.06238 6.81783C7.08842 6.83737 7.12604 6.85039 7.15714 6.85039M7.20271 6.85256C7.25769 6.86124 7.30833 6.88294 7.31628 6.91477M7.18029 6.97264C7.2302 7.0211 7.32135 7.058 7.38645 7.06161" stroke="black" stroke-width="0.0130208" stroke-linecap="round" stroke-linejoin="round"/>
<path d="M7.25696 6.297C7.30398 6.44891 7.31049 6.51112 7.42044 6.53427M7.42044 6.53427C7.31555 6.52197 7.26419 6.44023 7.21717 6.2876M7.42044 6.53427C7.2924 6.52776 7.22079 6.4207 7.17377 6.26807" stroke="black" stroke-width="0.0115741" stroke-linecap="round" stroke-linejoin="round"/>
<path d="M7.98901 7.75182C7.96586 7.73446 7.96007 7.72361 7.94344 7.69034L7.90437 7.61294L7.87978 7.62596C7.86893 7.63102 7.85735 7.61149 7.86965 7.6057L7.89063 7.59557L7.86242 7.53915C7.8465 7.53626 7.8617 7.52685 7.87255 7.52179C7.88412 7.516 7.90076 7.50877 7.89352 7.52324L7.92174 7.57966L7.94199 7.56953C7.95429 7.56302 7.96369 7.584 7.95212 7.58906L7.92752 7.60136L7.96659 7.67876C7.98322 7.71204 7.98901 7.72289 7.98901 7.75182Z" stroke="black" stroke-width="0.0115741" stroke-linecap="round" stroke-linejoin="round"/>
<path d="M7.9861 7.58755L7.86747 7.64759M7.75824 7.56006L7.91449 7.48121M7.73364 7.53547L7.8964 7.453" stroke="black" stroke-width="0.00868056" stroke-linecap="round" stroke-linejoin="round"/>
<path d="M6.43228 7.12463L6.48509 7.07689M6.40841 7.10293L6.45905 7.05735M6.38092 7.07761L6.4359 7.03131M7.4074 6.80634L7.45876 6.80417M7.40306 6.76222L7.45152 6.76077M7.40595 6.78609L7.45369 6.78175M7.5159 6.33325C7.52675 6.33976 7.53688 6.34483 7.54701 6.34627" stroke="black" stroke-width="0.00578704" stroke-linecap="round" stroke-linejoin="round"/>
</g>
<rect x="0.5" y="0.5" width="59" height="39" stroke="#DFDFDF"/>
<defs>
<clipPath id="clip0_101_3426">
<rect width="60" height="40" fill="white"/>
</clipPath>
</defs>
</svg>
