<svg width="144" height="40" viewBox="0 0 144 40" fill="none" xmlns="http://www.w3.org/2000/svg">
<g clip-path="url(#clip0_101_3404)">
<path d="M60 0H0V40H60V0Z" fill="#003399"/>
<path d="M29.2167 7.425L27.95 6.5H29.5167L30 5L30.4833 6.5H32.05L30.7833 7.425L31.2667 8.93333L30 8L28.7333 8.93333L29.2167 7.425ZM30.7833 33.5L31.2667 35L30 34.075L28.7333 35L29.2167 33.5L27.95 32.575H29.5167L30 31.0667L30.4833 32.575H32.05L30.7833 33.5ZM17.05 21L15.7833 21.9333L16.2667 20.4333L15 19.5333H16.5667L17.05 18.0333L17.5333 19.5333H19.1083L17.8333 20.4667L18.3167 21.9667L17.05 21.0333V21ZM24.3083 9.16667L24.7917 10.6667L23.525 9.75L22.2583 10.675L22.7417 9.175L21.475 8.25H23.0417L23.525 6.75L24.0083 8.25H25.575L24.3083 9.16667ZM18.3333 13.0167L18.8167 11.5167L19.3083 13.0167H20.8333L19.5667 13.95L20.05 15.45L18.775 14.5167L17.5 15.45L17.9833 13.95L16.7167 13.0167H18.3333ZM16.7333 26.05H18.3333L18.8167 24.55L19.3083 26.05H20.8333L19.5667 26.9833L20.05 28.4833L18.775 27.5583L17.5 28.4833L17.9833 26.9833L16.7167 26.05H16.7333ZM22.7417 31.75L21.475 30.8333H23.0417L23.525 29.3333L24.0083 30.8333H25.575L24.3083 31.75L24.7917 33.25L23.525 32.325L22.2583 33.25L22.7417 31.75ZM43.7333 20.4667L44.2167 21.9667L42.95 21.0333L41.6667 21.9667L42.15 20.4667L40.875 19.5333H42.5L42.9833 18.0333L43.4667 19.5333H45L43.7333 20.4667ZM35.6917 9.16667L34.425 8.25H35.9917L36.475 6.75L36.9583 8.25H38.525L37.2583 9.16667L37.7417 10.6667L36.475 9.75L35.2083 10.675L35.6917 9.175V9.16667ZM40.6917 13.0083L41.1833 11.5083L41.6667 13.0083H43.2333L42 13.95L42.4833 15.45L41.2167 14.5167L39.9417 15.45L40.425 13.95L39.1667 13.0167L40.6917 13.0083ZM41.6667 26.05H43.2333L42 26.9833L42.4833 28.4833L41.2167 27.5583L39.9417 28.4833L40.425 26.9833L39.1667 26.05H40.7333L41.225 24.55L41.7083 26.05H41.6667ZM38.525 30.8333L37.2583 31.75L37.7417 33.25L36.475 32.325L35.2083 33.25L35.6917 31.75L34.425 30.8333H35.9917L36.475 29.3333L36.9583 30.8333H38.525Z" fill="#FFCC00"/>
<path d="M70 23.075H72.4083V29.5333C72.3899 30.2013 72.4205 30.8698 72.5 31.5333C72.5932 32.0012 72.8539 32.419 73.2333 32.7083C73.7018 33.0246 74.2606 33.1797 74.825 33.15C75.3734 33.1852 75.9182 33.0388 76.375 32.7333C76.7148 32.4705 76.9438 32.0899 77.0167 31.6666C77.0983 30.9949 77.1318 30.3181 77.1167 29.6416V23.075H79.5333V29.3416C79.565 30.3568 79.498 31.3727 79.3333 32.375C79.2223 32.9265 78.976 33.442 78.6167 33.875C78.2308 34.3066 77.7482 34.6407 77.2083 34.85C76.4735 35.1111 75.6962 35.2327 74.9167 35.2083C74.0354 35.2505 73.1545 35.1174 72.325 34.8166C71.7851 34.5883 71.3058 34.2374 70.925 33.7916C70.6075 33.4161 70.377 32.975 70.25 32.5C70.0583 31.4923 69.9745 30.467 70 29.4416V23.075Z" fill="#515560"/>
<path d="M89.4167 35H87.125V30.5833C87.1546 29.977 87.107 29.3693 86.9833 28.775C86.8942 28.5176 86.7285 28.2937 86.5083 28.1333C86.2609 27.973 85.9695 27.8943 85.675 27.9083C85.2945 27.9044 84.922 28.0179 84.6083 28.2333C84.3101 28.4346 84.085 28.7269 83.9667 29.0667C83.8196 29.717 83.7608 30.384 83.7917 31.05V35H81.5333V26.3583H83.6583V27.6333C84.3127 26.7094 85.3761 26.1621 86.5083 26.1667C86.9836 26.1604 87.4549 26.2541 87.8917 26.4417C88.262 26.5877 88.5889 26.8258 88.8417 27.1333C89.0516 27.42 89.2018 27.7459 89.2833 28.0917C89.3875 28.5986 89.4322 29.116 89.4167 29.6333V35Z" fill="#515560"/>
<path d="M91.3167 25.1916V23.075H93.6V25.1916H91.3167ZM91.3167 35.0083V26.3583H93.6V35L91.3167 35.0083Z" fill="#515560"/>
<path d="M95 30.5583C95.0041 29.7894 95.1988 29.0335 95.5667 28.3583C95.9093 27.6522 96.4625 27.0699 97.15 26.6916C97.8587 26.3181 98.649 26.1262 99.45 26.1333C100.653 26.0911 101.819 26.5533 102.667 27.4083C103.504 28.2655 103.955 29.4272 103.917 30.6249C103.957 31.8343 103.502 33.0077 102.658 33.8749C101.821 34.7312 100.664 35.1994 99.4667 35.1666C98.6797 35.1697 97.9031 34.987 97.2 34.6333C96.4893 34.3014 95.9048 33.749 95.5333 33.0583C95.152 32.2817 94.9687 31.4228 95 30.5583ZM97.3417 30.6833C97.2939 31.3929 97.5139 32.0946 97.9583 32.6499C98.3366 33.0829 98.8834 33.3314 99.4583 33.3314C100.033 33.3314 100.58 33.0829 100.958 32.6499C101.402 32.0879 101.619 31.3805 101.567 30.6666C101.615 29.9634 101.398 29.2676 100.958 28.7166C100.58 28.2836 100.033 28.0352 99.4583 28.0352C98.8834 28.0352 98.3366 28.2836 97.9583 28.7166C97.5139 29.2719 97.2939 29.9736 97.3417 30.6833Z" fill="#515560"/>
<path d="M113.158 35H110.833V30.5833C110.863 29.977 110.815 29.3693 110.692 28.775C110.603 28.5176 110.437 28.2937 110.217 28.1333C109.969 27.973 109.678 27.8943 109.383 27.9083C109.003 27.9044 108.63 28.0179 108.317 28.2333C108.018 28.4346 107.793 28.7269 107.675 29.0667C107.528 29.717 107.469 30.384 107.5 31.05V35H105.208V26.3583H107.333V27.6333C107.988 26.7094 109.051 26.1621 110.183 26.1667C110.659 26.1604 111.13 26.2541 111.567 26.4417C111.937 26.5877 112.264 26.8258 112.517 27.1333C112.726 27.4215 112.879 27.7467 112.967 28.0917C113.063 28.5996 113.105 29.1165 113.092 29.6333L113.158 35Z" fill="#515560"/>
<path d="M70 16.9417V5H78.875V7.025H72.4333V9.675H78.425V11.6667H72.4333V14.9083H79.1V16.925L70 16.9417Z" fill="#515560"/>
<path d="M86.5833 16.9417V15.6417C86.2677 16.1041 85.8407 16.4795 85.3417 16.7334C84.8278 17.0028 84.2551 17.1402 83.675 17.1334C83.1284 17.1433 82.5886 17.0113 82.1083 16.75C81.6634 16.5146 81.311 16.1358 81.1083 15.675C80.891 15.0635 80.7975 14.4148 80.8333 13.7667V8.33337H83.125V12.3084C83.0914 13.0551 83.1332 13.8034 83.25 14.5417C83.3232 14.8048 83.4851 15.0344 83.7083 15.1917C83.9542 15.3569 84.2455 15.4414 84.5417 15.4334C84.9144 15.4371 85.2788 15.3234 85.5833 15.1084C85.8782 14.9219 86.1036 14.6438 86.225 14.3167C86.3747 13.5485 86.4307 12.765 86.3917 11.9834V8.33337H88.6833V16.9417H86.5833Z" fill="#515560"/>
<path d="M93.0083 16.9416H90.725V8.3333H92.85V9.56664C93.0946 9.11938 93.4295 8.72779 93.8333 8.41664C94.1273 8.23109 94.4691 8.1355 94.8166 8.14164C95.3499 8.14297 95.8723 8.29303 96.325 8.57497L95.6166 10.5666C95.3024 10.3397 94.9288 10.2094 94.5416 10.1916C94.2414 10.1816 93.9469 10.2758 93.7083 10.4583C93.4416 10.7182 93.2588 11.052 93.1833 11.4166C93.0173 12.371 92.9531 13.3403 92.9916 14.3083L93.0083 16.9416Z" fill="#515560"/>
<path d="M96.5333 12.4999C96.5345 11.7317 96.7264 10.9758 97.0917 10.2999C97.44 9.59521 97.9954 9.0137 98.6833 8.63327C99.3898 8.25401 100.182 8.06181 100.983 8.07494C102.178 8.04971 103.331 8.52029 104.167 9.37494C105.004 10.2322 105.455 11.3939 105.417 12.5916C105.455 13.7967 105.005 14.9662 104.167 15.8333C103.332 16.6891 102.178 17.1574 100.983 17.1249C100.196 17.128 99.4197 16.9453 98.7167 16.5916C98.0087 16.2559 97.4252 15.7045 97.05 15.0166C96.672 14.2335 96.4945 13.3687 96.5333 12.4999ZM98.875 12.6249C98.824 13.3336 99.0411 14.0355 99.4833 14.5916C99.8631 15.025 100.411 15.2735 100.987 15.2735C101.564 15.2735 102.112 15.025 102.492 14.5916C102.935 14.0296 103.152 13.3221 103.1 12.6083C103.148 11.9051 102.931 11.2093 102.492 10.6583C102.112 10.2249 101.564 9.97641 100.987 9.97641C100.411 9.97641 99.8631 10.2249 99.4833 10.6583C99.0431 11.2122 98.8261 11.9108 98.875 12.6166V12.6249Z" fill="#515560"/>
<path d="M106.892 8.33337H109.025V9.60837C109.306 9.16702 109.692 8.80313 110.15 8.55004C110.626 8.2745 111.167 8.13337 111.717 8.14171C112.704 8.13141 113.644 8.56598 114.275 9.32504C115.022 10.2502 115.397 11.4213 115.325 12.6084C115.385 13.8107 115.009 14.9942 114.267 15.9417C113.623 16.7094 112.668 17.147 111.667 17.1334C111.217 17.1403 110.772 17.0434 110.367 16.85C109.914 16.5952 109.509 16.2655 109.167 15.875V20.225H106.883L106.892 8.33337ZM109.167 12.5C109.107 13.2652 109.313 14.0275 109.75 14.6584C110.086 15.0962 110.607 15.352 111.158 15.35C111.674 15.3554 112.164 15.1215 112.483 14.7167C112.887 14.0946 113.072 13.3556 113.008 12.6167C113.066 11.9021 112.875 11.1894 112.467 10.6C112.147 10.1788 111.646 9.93446 111.117 9.94171C110.579 9.93279 110.067 10.1689 109.725 10.5834C109.319 11.1364 109.121 11.8153 109.167 12.5Z" fill="#515560"/>
<path d="M121.975 14.1667L124.25 14.5417C124.011 15.3124 123.525 15.9831 122.867 16.45C122.163 16.9109 121.332 17.141 120.492 17.1084C119.204 17.2041 117.953 16.6508 117.158 15.6334C116.57 14.756 116.278 13.7135 116.325 12.6584C116.261 11.4445 116.664 10.2521 117.45 9.32503C118.176 8.52613 119.213 8.0821 120.292 8.10837C121.445 8.05109 122.562 8.51639 123.333 9.37503C124.159 10.4986 124.538 11.8879 124.4 13.275H118.675C118.654 13.853 118.85 14.4177 119.225 14.8584C119.562 15.2284 120.042 15.435 120.542 15.425C120.869 15.4331 121.189 15.3303 121.45 15.1334C121.719 14.8722 121.903 14.5349 121.975 14.1667ZM122.108 11.85C122.13 11.3005 121.946 10.7626 121.592 10.3417C121.289 10.0083 120.858 9.82022 120.408 9.82503C119.935 9.81398 119.481 10.0121 119.167 10.3667C118.825 10.7824 118.655 11.3131 118.692 11.85H122.108Z" fill="#515560"/>
<path d="M127.95 10.9334L125.875 10.5584C126.045 9.81766 126.47 9.1601 127.075 8.70003C127.831 8.25748 128.701 8.0487 129.575 8.10003C130.35 8.06008 131.125 8.18212 131.85 8.45836C132.292 8.64627 132.663 8.9703 132.908 9.38336C133.161 10.0328 133.266 10.7301 133.217 11.425V14.1C133.201 14.6577 133.238 15.2157 133.325 15.7667C133.412 16.171 133.549 16.5629 133.733 16.9334H131.475C131.419 16.7778 131.344 16.5528 131.25 16.2584C131.25 16.1167 131.183 16.0334 131.175 15.9834C130.811 16.3371 130.384 16.6197 129.917 16.8167C129.466 17.0086 128.981 17.1051 128.492 17.1C127.724 17.1439 126.969 16.8835 126.392 16.375C125.555 15.5473 125.384 14.2592 125.975 13.2417C126.209 12.8598 126.547 12.5532 126.95 12.3584C127.532 12.1074 128.142 11.9283 128.767 11.825C129.524 11.7095 130.269 11.5225 130.992 11.2667V11.0334C131.026 10.6896 130.907 10.3482 130.667 10.1C130.302 9.86992 129.87 9.77005 129.442 9.8167C129.105 9.79851 128.771 9.88277 128.483 10.0584C128.218 10.2868 128.031 10.5929 127.95 10.9334ZM131.008 12.7917C130.717 12.8834 130.25 13 129.617 13.1417C129.185 13.2082 128.766 13.3403 128.375 13.5334C128.09 13.7136 127.919 14.0294 127.925 14.3667C127.922 14.6825 128.052 14.9849 128.283 15.2C128.526 15.4346 128.854 15.5609 129.192 15.55C129.619 15.5429 130.034 15.3999 130.375 15.1417C130.635 14.9568 130.826 14.6897 130.917 14.3834C130.993 14.0164 131.024 13.6413 131.008 13.2667V12.7917Z" fill="#515560"/>
<path d="M143.267 16.9417H140.983V12.5C141.016 11.8932 140.965 11.2848 140.833 10.6917C140.75 10.4311 140.583 10.2054 140.358 10.05C140.112 9.88699 139.82 9.80805 139.525 9.82504C139.144 9.82109 138.772 9.93458 138.458 10.15C138.156 10.3466 137.929 10.6406 137.817 10.9834C137.67 11.6337 137.611 12.3007 137.642 12.9667V16.8834H135.35V8.33338H137.5V9.60838C138.153 8.68329 139.217 8.1357 140.35 8.14171C140.825 8.13617 141.296 8.22983 141.733 8.41671C142.104 8.56277 142.431 8.80082 142.683 9.10838C142.893 9.39498 143.043 9.72089 143.125 10.0667C143.221 10.5747 143.263 11.0915 143.25 11.6084L143.267 16.9417Z" fill="#515560"/>
</g>
<defs>
<clipPath id="clip0_101_3404">
<rect width="143.333" height="40" fill="white"/>
</clipPath>
</defs>
</svg>
