<?xml version="1.0" encoding="UTF-8"?>
<svg width="40px" height="40px" viewBox="0 0 40 40" version="1.1" xmlns="http://www.w3.org/2000/svg" xmlns:xlink="http://www.w3.org/1999/xlink">
    <title>BE5CD628-F4DE-4743-8F6F-3233EDC97729</title>
    <g id="Desktop" stroke="none" stroke-width="1" fill="none" fill-rule="evenodd">
        <g id="Bavaria-44" transform="translate(-495.000000, -1606.000000)">
            <g id="Medium-Heads" transform="translate(495.000000, 1606.000000)">
                <polygon id="Fill-1" points="0 40 40 40 40 0.00125 0 0.00125"></polygon>
                <g id="Group-8" transform="translate(5.000000, 5.000000)" stroke="#23A8CD" stroke-linecap="round" stroke-linejoin="round" stroke-width="2">
                    <path d="M29.375125,14.999625 C29.375125,7.060875 22.938875,0.624625 15.000125,0.624625 C7.060125,0.624625 0.625125,7.060875 0.625125,14.999625 C0.625125,22.939625 7.060125,29.374625 15.000125,29.374625 C22.938875,29.374625 29.375125,22.939625 29.375125,14.999625 Z" id="Stroke-2"></path>
                    <path d="M27.273625,22.485625 C24.054875,13.500625 18.044875,8.529375 15.839875,6.941875 C15.334875,6.578125 14.666125,6.578125 14.159875,6.941875 C11.954875,8.529375 5.944875,13.500625 2.726125,22.485625" id="Stroke-4"></path>
                    <path d="M22.00025,27.557625 L22.00025,21.225125 C22.00025,20.431375 21.3565,19.787625 20.56275,19.787625 L9.43775,19.787625 C8.64275,19.787625 8.00025,20.431375 8.00025,21.225125 L8.00025,27.556375" id="Stroke-6"></path>
                </g>
            </g>
        </g>
    </g>
</svg>