<?xml version="1.0" encoding="UTF-8"?>
<svg width="40px" height="40px" viewBox="0 0 40 40" version="1.1" xmlns="http://www.w3.org/2000/svg" xmlns:xlink="http://www.w3.org/1999/xlink">
    <title>LinkedIn</title>
    <g id="LinkedIn" stroke="none" stroke-width="1" fill="none" fill-rule="evenodd">
        <g id="Group-5-Copy" transform="translate(8.000000, 8.000000)" fill="#23A8CD" fill-rule="nonzero">
            <g id="iconfinder_LinkedIn_570628">
                <path d="M12.7880812,10.0659467 L12.7880812,10.0134467 C12.7780812,10.0304467 12.7633812,10.0494467 12.7533812,10.0659467 L12.7880812,10.0659467 Z" id="Path"></path>
                <path d="M12,0.0827586207 C5.37257234,0.0827586207 0,5.45533096 0,12.0827586 C0,18.7101863 5.37257234,24.0827586 12,24.0827586 C18.6274277,24.0827586 24,18.7101863 24,12.0827586 C24,5.45533096 18.6274277,0.0827586207 12,0.0827586207 Z M8.69532587,16.7497521 L6.10047328,16.7497521 L6.10047328,8.94369184 L8.69532587,8.94369184 L8.69532587,16.7497521 Z M7.39838169,7.8784051 L7.38088083,7.8784051 C6.51027312,7.8784051 5.94634033,7.27840992 5.94634033,6.52886191 C5.94634033,5.76297011 6.52738829,5.18042758 7.41511117,5.18042758 C8.30321974,5.18042758 8.84926598,5.76297011 8.86638115,6.52886191 C8.86642936,7.27840992 8.30326795,7.8784051 7.39838169,7.8784051 Z M18.0537079,16.7498967 L15.4588071,16.7498967 L15.4588071,12.5734578 C15.4588071,11.5244184 15.0831412,10.8082811 14.1440246,10.8082811 C13.4268748,10.8082811 13.0002009,11.2907843 12.8122233,11.7574258 C12.7437626,11.9244312 12.7262617,12.1564262 12.7262617,12.3902049 L12.7262617,16.7497521 L10.1310235,16.7497521 C10.1310235,16.7497521 10.1656395,9.67622111 10.1310235,8.94369184 L12.7261171,8.94369184 L12.7261171,10.050055 C13.0707829,9.5190026 13.6868326,8.76019793 15.0652546,8.76019793 C16.7733968,8.76019793 18.0535632,9.87572131 18.0537079,12.2734361 L18.0537079,16.7498967 L18.0537079,16.7498967 Z" id="Shape"></path>
            </g>
        </g>
    </g>
</svg>