<?xml version="1.0" encoding="UTF-8"?>
<svg width="32px" height="32px" viewBox="0 0 32 32" version="1.1" xmlns="http://www.w3.org/2000/svg" xmlns:xlink="http://www.w3.org/1999/xlink">
    <title>9B022C83-3E01-4FFD-AB49-79C2FC521516</title>
    <g id="Desktop" stroke="none" stroke-width="1" fill="none" fill-rule="evenodd">
        <g id="Contact-Us" transform="translate(-159.000000, -588.000000)">
            <g id="Pin" transform="translate(159.000000, 588.000000)">
                <polygon id="Fill-1" points="0 32 31.999 32 31.999 0.001 0 0.001"></polygon>
                <g id="Group-6" transform="translate(7.000000, 4.000000)" stroke="#23A8CD" stroke-linecap="round" stroke-linejoin="round" stroke-width="1.4">
                    <path d="M8.9955,0.5002 C4.2295,0.5002 0.3705,4.2532 0.3705,8.8812 C0.3705,15.0302 6.0955,20.8632 8.2165,22.8132 C8.6595,23.2202 9.3315,23.2202 9.7745,22.8132 C11.8955,20.8632 17.6205,15.0302 17.6205,8.8812 C17.6205,4.2532 13.7575,0.5002 8.9955,0.5002" id="Stroke-2"></path>
                    <path d="M8.998,12.2854 C7.091,12.2854 5.545,10.7404 5.545,8.8334 C5.545,6.9314 7.091,5.3854 8.998,5.3854 C10.9,5.3854 12.446,6.9314 12.446,8.8334 C12.446,10.7404 10.9,12.2854 8.998,12.2854" id="Stroke-4"></path>
                </g>
            </g>
        </g>
    </g>
</svg>