<?xml version="1.0" encoding="UTF-8"?>
<svg width="44px" height="42px" viewBox="0 0 44 42" version="1.1" xmlns="http://www.w3.org/2000/svg" xmlns:xlink="http://www.w3.org/1999/xlink">
    <title>23821CA5-A386-492C-BFEA-50D8E5E46C30</title>
    <g id="Desktop" stroke="none" stroke-width="1" fill="none" fill-rule="evenodd">
        <g id="About-Us" transform="translate(-158.000000, -2484.000000)">
            <g id="Vision" transform="translate(159.000000, 2484.000000)">
                <polygon id="Fill-1" points="0 42 42 42 42 0 0 0"></polygon>
                <g id="Group-18" transform="translate(0.000000, 8.000000)" stroke="#23A8CD" stroke-linecap="round" stroke-linejoin="round" stroke-width="2.45">
                    <path d="M41.0928,17.024825 C41.0928,21.748075 37.2638,25.578825 32.54055,25.578825 C27.8173,25.578825 23.98655,21.748075 23.98655,17.024825 C23.98655,12.301575 27.8173,8.472575 32.54055,8.472575 C37.2638,8.472575 41.0928,12.301575 41.0928,17.024825 Z" id="Stroke-2"></path>
                    <path d="M32.540025,13.000175 C34.762525,13.000175 36.565025,14.802675 36.565025,17.025175" id="Stroke-4"></path>
                    <path d="M9.427775,13.000175 C7.205275,13.000175 5.402775,14.802675 5.402775,17.025175" id="Stroke-6"></path>
                    <line x1="17.98125" y1="17.024825" x2="23.98725" y2="17.024825" id="Stroke-8"></line>
                    <path d="M7.19495,3.505025 C7.4592,3.034275 7.7917,2.591525 8.19245,2.190775 C10.5497,-0.168225 14.37345,-0.168225 16.7307,2.190775 C19.08795,4.548025 22.9117,4.548025 25.26895,2.190775 C27.6262,-0.168225 31.44995,-0.168225 33.8072,2.190775 C34.20795,2.591525 34.54045,3.032525 34.8047,3.505025" id="Stroke-10"></path>
                    <line x1="7.19495" y1="3.505025" x2="2.15845" y2="12.582275" id="Stroke-12"></line>
                    <line x1="34.804525" y1="3.505025" x2="39.841025" y2="12.582275" id="Stroke-14"></line>
                    <path d="M17.98125,17.024825 C17.98125,21.748075 14.15225,25.578825 9.42725,25.578825 C4.704,25.578825 0.875,21.748075 0.875,17.024825 C0.875,12.301575 4.704,8.472575 9.42725,8.472575 C14.15225,8.472575 17.98125,12.301575 17.98125,17.024825 Z" id="Stroke-16"></path>
                </g>
            </g>
        </g>
    </g>
</svg>