<?xml version="1.0" encoding="UTF-8"?>
<svg width="40px" height="40px" viewBox="0 0 40 40" version="1.1" xmlns="http://www.w3.org/2000/svg" xmlns:xlink="http://www.w3.org/1999/xlink">
    <title>4E3DE356-210B-4A04-B79A-FA836FF14F65</title>
    <g id="Desktop" stroke="none" stroke-width="1" fill="none" fill-rule="evenodd">
        <g id="Bavaria-44" transform="translate(-151.000000, -1606.000000)">
            <g id="Medium-People" transform="translate(151.000000, 1606.000000)">
                <polygon id="Fill-1" points="0 40 39.99875 40 39.99875 0.00125 0 0.00125"></polygon>
                <g id="Group-10" transform="translate(7.500000, 6.250000)" stroke="#23A8CD" stroke-linecap="round" stroke-linejoin="round" stroke-width="2">
                    <path d="M16.780375,17.446625 L21.731625,17.446625 C23.972875,17.446625 25.376625,14.979125 24.196625,13.072875 C22.730375,10.706625 20.110375,9.129125 17.120375,9.129125 C16.784125,9.129125 16.452875,9.149125 16.127875,9.187875" id="Stroke-2"></path>
                    <path d="M12.962,4.971 C12.962,2.67475 14.8245,0.81225 17.12075,0.81225 C19.417,0.81225 21.27825,2.67475 21.27825,4.971 C21.27825,7.26725 19.417,9.12975 17.12075,9.12975 C16.76575,9.12975 16.42325,9.08475 16.0945,9.00225" id="Stroke-4"></path>
                    <path d="M18.347125,26.68725 C20.298375,26.68725 21.748375,24.76225 21.087125,22.92725 C19.545875,18.6535 15.455875,15.5985 10.652125,15.5985 C5.847125,15.5985 1.757125,18.6535 0.217125,22.92725 C-0.445375,24.76225 1.004625,26.68725 2.955875,26.68725 L18.347125,26.68725 Z" id="Stroke-6"></path>
                    <path d="M16.19625,10.053375 C16.19625,13.115875 13.71375,15.598375 10.65125,15.598375 C7.59,15.598375 5.1075,13.115875 5.1075,10.053375 C5.1075,6.990875 7.59,4.508375 10.65125,4.508375 C13.71375,4.508375 16.19625,6.990875 16.19625,10.053375 Z" id="Stroke-8"></path>
                </g>
            </g>
        </g>
    </g>
</svg>