<?xml version="1.0" encoding="UTF-8"?>
<svg width="32px" height="32px" viewBox="0 0 32 32" version="1.1" xmlns="http://www.w3.org/2000/svg" xmlns:xlink="http://www.w3.org/1999/xlink">
    <title>16A2A0A1-D549-41F7-9D25-1287D1B46819</title>
    <g id="Desktop" stroke="none" stroke-width="1" fill="none" fill-rule="evenodd">
        <g id="Contact-Us" transform="translate(-159.000000, -511.000000)">
            <g id="Phone" transform="translate(159.000000, 511.000000)">
                <polygon id="Fill-1" points="0 32 31.999 32 31.999 0.001 0 0.001"></polygon>
                <g id="Group-8" transform="translate(4.000000, 5.000000)" stroke="#23A8CD" stroke-linecap="round" stroke-linejoin="round" stroke-width="1.4">
                    <path d="M18.0541,21.8708 C17.4701,22.4548 16.6081,22.6428 15.8221,22.3898 C12.3711,21.2788 9.1261,19.3538 6.3861,16.6138 C3.6461,13.8738 1.7211,10.6288 0.6101,7.1778 C0.3571,6.3918 0.5451,5.5298 1.1291,4.9458 L3.9581,2.1168 C4.4501,1.6248 5.2731,1.7188 5.6401,2.3098 L7.2861,4.9518 C7.5521,5.3788 7.4881,5.9328 7.1331,6.2878 L5.8871,7.5318 C5.7571,7.6628 5.6971,7.8518 5.7351,8.0328 C6.1971,10.2258 7.2801,12.3148 8.9821,14.0178 C10.6851,15.7208 12.7741,16.8028 14.9671,17.2648 C15.1481,17.3028 15.3371,17.2428 15.4681,17.1118 L16.7121,15.8678 C17.0681,15.5118 17.6211,15.4488 18.0481,15.7138 L20.6901,17.3598 C21.2811,17.7268 21.3751,18.5498 20.8831,19.0418 L18.0541,21.8708 Z" id="Stroke-2"></path>
                    <path d="M12.6484,5.3132 C15.4314,5.3132 17.6874,7.5692 17.6874,10.3522" id="Stroke-4"></path>
                    <path d="M12.6484,0.6501 C18.0064,0.6501 22.3504,4.9931 22.3504,10.3521" id="Stroke-6"></path>
                </g>
            </g>
        </g>
    </g>
</svg>