<?xml version="1.0" encoding="UTF-8"?>
<svg width="33px" height="33px" viewBox="0 0 33 33" version="1.1" xmlns="http://www.w3.org/2000/svg" xmlns:xlink="http://www.w3.org/1999/xlink">
    <title>896A6365-76E6-4BAC-A864-F2F1829C0B0E</title>
    <g id="Desktop" stroke="none" stroke-width="1" fill="none" fill-rule="evenodd">
        <g id="Homepage" transform="translate(-310.000000, -2806.000000)">
            <g id="Group-4" transform="translate(235.000000, 2757.000000)">
                <g id="Quotation-Marks" transform="translate(75.330078, 49.804688)">
                    <rect id="Rectangle" x="0" y="0" width="32" height="32"></rect>
                    <path d="M13.0507812,25.3515625 L13.0507812,19.4804688 C13.1210938,16.1992188 14.1640625,12.9648438 16.1796875,9.77734375 L16.1796875,9.77734375 L11.3984375,7 C9.59375,8.5234375 8.07617188,10.5332031 6.84570312,13.0292969 C5.61523438,15.5253906 5,17.875 5,20.078125 L5,20.078125 L5,25.3515625 L13.0507812,25.3515625 Z M25.109375,25.3515625 L25.109375,19.4804688 C25.1796875,16.1992188 26.2226562,12.9648438 28.2382812,9.77734375 L28.2382812,9.77734375 L23.4570312,7 C21.6523438,8.5234375 20.1347656,10.5332031 18.9042969,13.0292969 C17.6738281,15.5253906 17.0585938,17.875 17.0585938,20.078125 L17.0585938,20.078125 L17.0585938,25.3515625 L25.109375,25.3515625 Z" id="“" fill="#23A8CD" fill-rule="nonzero"></path>
                </g>
            </g>
        </g>
    </g>
</svg>