<?xml version="1.0" encoding="UTF-8"?>
<svg width="32px" height="32px" viewBox="0 0 32 32" version="1.1" xmlns="http://www.w3.org/2000/svg" xmlns:xlink="http://www.w3.org/1999/xlink">
    <title>50297B7A-37F2-435A-96A6-22496CCD2E5C</title>
    <g id="Desktop" stroke="none" stroke-width="1" fill="none" fill-rule="evenodd">
        <g id="Search" transform="translate(-151.000000, -1434.000000)">
            <g id="Help" transform="translate(151.000000, 1434.000000)">
                <polygon id="Fill-1" points="0 32 31.999 32 31.999 0.001 0 0.001"></polygon>
                <g id="Group-10" transform="translate(4.000000, 4.000000)" stroke="#23A8CD" stroke-linecap="round" stroke-linejoin="round" stroke-width="1.4">
                    <path d="M23.4955,10.9831 C23.4955,16.5031 18.3555,20.9831 11.9955,20.9831 C10.9945,20.9831 10.0165,20.8731 9.0895,20.6601 C8.8575,20.6071 8.6175,20.6221 8.3975,20.7131 L3.0695,22.9211 C2.1225,23.3131 1.1745,22.3651 1.5665,21.4191 L2.9375,18.1041 C3.1075,17.6941 3.0135,17.2341 2.7265,16.8961 C1.3215,15.2411 0.4955,13.1971 0.4955,10.9831 C0.4955,5.4531 5.6455,0.9831 11.9955,0.9831 C18.3555,0.9831 23.4955,5.4531 23.4955,10.9831 Z" id="Stroke-2"></path>
                    <path d="M8.0829,10.9831 C8.0829,11.3601 7.7779,11.6661 7.4009,11.6661 C7.0239,11.6661 6.7179,11.3601 6.7179,10.9831 C6.7179,10.6061 7.0239,10.3001 7.4009,10.3001 C7.7779,10.3001 8.0829,10.6061 8.0829,10.9831 Z" id="Stroke-4"></path>
                    <path d="M12.6782,10.9831 C12.6782,11.3601 12.3722,11.6661 11.9952,11.6661 C11.6182,11.6661 11.3132,11.3601 11.3132,10.9831 C11.3132,10.6061 11.6182,10.3001 11.9952,10.3001 C12.3722,10.3001 12.6782,10.6061 12.6782,10.9831 Z" id="Stroke-6"></path>
                    <path d="M17.2729,10.9831 C17.2729,11.3601 16.9669,11.6661 16.5899,11.6661 C16.2129,11.6661 15.9079,11.3601 15.9079,10.9831 C15.9079,10.6061 16.2129,10.3001 16.5899,10.3001 C16.9669,10.3001 17.2729,10.6061 17.2729,10.9831 Z" id="Stroke-8"></path>
                </g>
            </g>
        </g>
    </g>
</svg>