<?xml version="1.0" encoding="UTF-8"?>
<svg width="40px" height="40px" viewBox="0 0 40 40" version="1.1" xmlns="http://www.w3.org/2000/svg" xmlns:xlink="http://www.w3.org/1999/xlink">
    <title>TripAdvisor</title>
    <g id="TripAdvisor" stroke="none" stroke-width="1" fill="none" fill-rule="evenodd">
        <g id="Group-2-Copy-2" transform="translate(8.000000, 13.000000)" fill="#23A8CD" fill-rule="nonzero">
            <g id="iconfinder_trip_advisor-social-media_765196">
                <path d="M22.5985822,4.44189272 C22.8254392,3.76066832 23.1725188,2.95826459 23.6519316,2.47503592 L19.7002466,2.47503592 C19.6349661,2.45478973 19.5667317,2.44109379 19.5002697,2.42293178 C19.2855235,2.08351053 17.8156786,0.171735242 11.9410254,0.171735242 C5.49391241,0.171735242 4.35135616,2.47503592 4.35135616,2.47503592 L0.229823727,2.47503592 C0.755612283,3.00500944 1.12100579,3.91698074 1.34461362,4.63393369 C0.585174084,5.64922007 0.128801431,6.9074606 0.128801431,8.27437546 C0.128801431,11.6188657 2.82834166,14.3398927 6.1467173,14.3398927 C7.98609109,14.3398927 9.63316806,13.5017604 10.7379148,12.1863542 L12.1040789,14.1148028 L13.2832631,12.1116219 C14.3877145,13.4704979 16.0643301,14.3398927 17.9391503,14.3398927 C21.2572305,14.3398927 23.9570662,11.6188657 23.9570662,8.27437546 C23.9570662,6.82171206 23.4466377,5.48725062 22.5985822,4.44189272 Z M6.24701693,13.0518784 C3.58366529,13.0518784 1.41681574,10.8853238 1.41681574,8.22197219 C1.41681574,5.55862057 3.58366529,3.39177102 6.24701693,3.39177102 C8.91007351,3.39177102 11.0769231,5.55862057 11.0769231,8.22197219 C11.0769231,10.8853238 8.91007351,13.0518784 6.24701693,13.0518784 Z M4.19765555,6.17261085 C3.65023137,6.720035 3.34883721,7.44776277 3.34883721,8.22197274 C3.34883721,8.99618266 3.65023137,9.72391044 4.19765555,10.2710385 C4.74507972,10.8184627 5.47280748,11.1198569 6.24701743,11.1198569 C7.84488022,11.1198569 9.14490162,9.81983548 9.14490162,8.22197274 C9.14490162,6.62381386 7.84488022,5.32379249 6.24701743,5.32379249 C5.47280748,5.32379249 4.74507972,5.62518664 4.19765555,6.17261085 Z M4.65293154,9.81576257 C4.22726164,9.39009265 3.99284436,8.82397161 3.99284436,8.22199072 C3.99284436,7.61967779 4.22726164,7.05388873 4.65293154,6.62821887 C5.07893348,6.20221691 5.64472247,5.96779965 6.2470354,5.96779965 C7.48984543,5.96779965 8.50089444,6.97918069 8.50089444,8.22199072 C8.50089444,9.46480069 7.48984543,10.4758497 6.2470354,10.4758497 C5.64472247,10.4758497 5.07893348,10.2414324 4.65293154,9.81576257 C4.65293154,9.81576257 5.07893348,10.2414324 4.65293154,9.81576257 Z M5.28085868,8.22197034 C5.28085868,8.75545418 5.71353126,9.18783544 6.24701509,9.18783544 C6.78049892,9.18783544 7.21288013,8.75545418 7.21288013,8.22197034 C7.21288013,7.68848651 6.78049892,7.25581395 6.24701509,7.25581395 C5.71353126,7.25581395 5.28085868,7.68848651 5.28085868,8.22197034 Z M17.8389982,13.0518784 C15.1757279,13.0518784 13.0089445,10.8853238 13.0089445,8.22197219 C13.0089445,5.55862057 15.1757279,3.39177102 17.8389982,3.39177102 C20.5022685,3.39177102 22.6690519,5.55862057 22.6690519,8.22197219 C22.6690519,10.8853238 20.5022685,13.0518784 17.8389982,13.0518784 Z M15.7897844,6.17261085 C15.2423601,6.720035 14.940966,7.44776277 14.940966,8.22197274 C14.940966,8.99618266 15.2423601,9.72391044 15.7897844,10.2710385 C16.3372085,10.8184627 17.0649363,11.1198569 17.8391463,11.1198569 C19.437009,11.1198569 20.7370304,9.81983548 20.7370304,8.22197274 C20.7370304,6.62381386 19.437009,5.32379249 17.8391463,5.32379249 C17.0649363,5.32379249 16.3372085,5.62518664 15.7897844,6.17261085 Z M16.2450603,9.81576257 C15.8193904,9.39009265 15.5849732,8.82397161 15.5849732,8.22199072 C15.5849732,7.61967779 15.8193904,7.05388873 16.2450603,6.62821887 C16.6710623,6.20221691 17.2368513,5.96779965 17.8391642,5.96779965 C19.0819743,5.96779965 20.0930233,6.97918069 20.0930233,8.22199072 C20.0930233,9.46480069 19.0819743,10.4758497 17.8391642,10.4758497 C17.2368513,10.4758497 16.6710623,10.2414324 16.2450603,9.81576257 C16.2450603,9.81576257 16.6710623,10.2414324 16.2450603,9.81576257 Z M16.8729875,8.22197034 C16.8729875,8.75545418 17.3056601,9.18783544 17.8391439,9.18783544 C18.3726277,9.18783544 18.8050089,8.75545418 18.8050089,8.22197034 C18.8050089,7.68848651 18.3726277,7.25581395 17.8391439,7.25581395 C17.3056601,7.25581395 16.8729875,7.68848651 16.8729875,8.22197034 Z M11.9222715,0.815742396 C15.9875586,0.815742396 17.5169946,2.53830119 17.5169946,2.53830119 C17.5169946,2.53830119 13.1699463,1.80010413 11.7209302,7.25581395 C10.2719142,1.80010413 5.92486582,2.53830119 5.92486582,2.53830119 C5.92486582,2.53830119 7.45459328,0.815742396 11.5198803,0.815742396 L11.9222715,0.815742396 Z" id="Shape"></path>
            </g>
        </g>
    </g>
</svg>