<?xml version="1.0" encoding="UTF-8"?>
<svg width="44px" height="44px" viewBox="0 0 44 44" version="1.1" xmlns="http://www.w3.org/2000/svg" xmlns:xlink="http://www.w3.org/1999/xlink">
    <title>DCCEB08C-D10D-4ECF-83C4-C9B23691F45F</title>
    <g id="Desktop" stroke="none" stroke-width="1" fill="none" fill-rule="evenodd">
        <g id="About-Us" transform="translate(-1034.000000, -935.000000)">
            <g id="Memorable-Experiences" transform="translate(1035.000000, 936.000000)">
                <polygon id="Fill-1" points="0 42 42 42 42 0 0 0"></polygon>
                <g id="Group-22" stroke="#23A8CD" stroke-linecap="round" stroke-linejoin="round" stroke-width="2.45">
                    <path d="M41.125175,21.00035 C41.125175,32.1146 32.114425,41.12535 21.000175,41.12535 C9.884175,41.12535 0.875175,32.1146 0.875175,21.00035 C0.875175,9.88435 9.884175,0.87535 21.000175,0.87535 C32.114425,0.87535 41.125175,9.88435 41.125175,21.00035 Z" id="Stroke-2"></path>
                    <path d="M29.05035,21.00035 C29.05035,25.4471 25.44535,29.05035 21.00035,29.05035 C16.5536,29.05035 12.95035,25.4471 12.95035,21.00035 C12.95035,16.5536 16.5536,12.95035 21.00035,12.95035 C25.44535,12.95035 29.05035,16.5536 29.05035,21.00035 Z" id="Stroke-4"></path>
                    <line x1="28.43855" y1="17.919125" x2="39.5948" y2="13.297375" id="Stroke-6"></line>
                    <line x1="2.404675" y1="28.701925" x2="13.560925" y2="24.080175" id="Stroke-8"></line>
                    <line x1="24.0814" y1="13.561275" x2="28.70315" y2="2.405025" id="Stroke-10"></line>
                    <line x1="13.297725" y1="39.594975" x2="17.919475" y2="28.438725" id="Stroke-12"></line>
                    <line x1="17.91895" y1="13.561275" x2="13.2972" y2="2.405025" id="Stroke-14"></line>
                    <line x1="28.702625" y1="39.594975" x2="24.080875" y2="28.438725" id="Stroke-16"></line>
                    <line x1="13.5618" y1="17.919125" x2="2.40555" y2="13.297375" id="Stroke-18"></line>
                    <line x1="39.5948" y1="28.701925" x2="28.43855" y2="24.080175" id="Stroke-20"></line>
                </g>
            </g>
        </g>
    </g>
</svg>