<?xml version="1.0" encoding="UTF-8"?>
<svg width="40px" height="40px" viewBox="0 0 40 40" version="1.1" xmlns="http://www.w3.org/2000/svg" xmlns:xlink="http://www.w3.org/1999/xlink">
    <title>YouTube</title>
    <g id="YouTube" stroke="none" stroke-width="1" fill="none" fill-rule="evenodd">
        <g id="iconfinder_Youtube_1298778" transform="translate(8.000000, 11.000000)" fill="#23A8CD">
            <path d="M23.76,3.792 C23.76,3.792 23.52525,2.1264375 22.806,1.393125 C21.89325,0.430125 20.87025,0.425625 20.4015,0.36975 C17.043,0.1250625 12.00525,0.1250625 12.00525,0.1250625 L11.99475,0.1250625 C11.99475,0.1250625 6.957,0.1250625 3.5985,0.36975 C3.129,0.425625 2.10675,0.430125 1.19325,1.393125 C0.474,2.126625 0.24,3.792 0.24,3.792 C0.24,3.792 0,5.748375 0,7.7038125 L0,9.53775 C0,11.4939375 0.24,13.4495625 0.24,13.4495625 C0.24,13.4495625 0.474,15.115125 1.19325,15.8484375 C2.10675,16.8114375 3.306,16.78125 3.84,16.88175 C5.76,17.0675625 12,17.1249375 12,17.1249375 C12,17.1249375 17.043,17.1174375 20.4015,16.87275 C20.87025,16.816125 21.89325,16.811625 22.806,15.848625 C23.52525,15.115125 23.76,13.44975 23.76,13.44975 C23.76,13.44975 24,11.494125 24,9.53775 L24,7.7038125 C24,5.748375 23.76,3.792 23.76,3.792 Z M9.522,11.76 L9.52125,4.9689375 L16.00575,8.3761875 L9.522,11.76 Z" id="Youtube"></path>
        </g>
    </g>
</svg>